Jost-Thin.ufo
<glyph name="exclam" format="2">
	<advance width="262"/>
	<unicode hex="0021"/>
	<outline>
		<contour>
			<point x="128" y="200" type="line"/>
			<point x="134" y="200" type="line"/>
			<point x="138" y="700" type="line"/>
			<point x="124" y="700" type="line"/>
		</contour>
		<contour>
			<point x="131" y="-10" type="curve" smooth="yes"/>
			<point x="137" y="-10"/>
			<point x="142" y="-6"/>
			<point x="142" y="1" type="curve" smooth="yes"/>
			<point x="142" y="8"/>
			<point x="137" y="12"/>
			<point x="131" y="12" type="curve" smooth="yes"/>
			<point x="125" y="12"/>
			<point x="120" y="8"/>
			<point x="120" y="1" type="curve" smooth="yes"/>
			<point x="120" y="-6"/>
			<point x="125" y="-10"/>
		</contour>
	</outline>
</glyph>
<glyph name="quotesingle" format="2">
	<advance width="223"/>
	<unicode hex="0027"/>
	<outline>
		<contour>
			<point x="90" y="420" type="line"/>
			<point x="97" y="420" type="line"/>
			<point x="153" y="700" type="line"/>
			<point x="140" y="700" type="line"/>
		</contour>
	</outline>
</glyph>
<glyph name="parenleft" format="2">
	<advance width="240"/>
	<unicode hex="0028"/>
	<outline>
		<contour>
			<point x="205" y="-200" type="curve"/>
			<point x="210" y="-200" type="line"/>
			<point x="135" y="-40"/>
			<point x="100" y="120"/>
			<point x="100" y="290" type="curve" smooth="yes"/>
			<point x="100" y="460"/>
			<point x="135" y="620"/>
			<point x="210" y="780" type="curve"/>
			<point x="205" y="780" type="line"/>
			<point x="125" y="630"/>
			<point x="90" y="460"/>
			<point x="90" y="290" type="curve" smooth="yes"/>
			<point x="90" y="120"/>
			<point x="125" y="-50"/>
		</contour>
	</outline>
</glyph>
<glyph name="parenright" format="2">
	<advance width="240"/>
	<unicode hex="0029"/>
	<outline>
		<contour>
			<point x="30" y="-200" type="curve"/>
			<point x="35" y="-200" type="line"/>
			<point x="115" y="-50"/>
			<point x="150" y="120"/>
			<point x="150" y="290" type="curve" smooth="yes"/>
			<point x="150" y="460"/>
			<point x="115" y="630"/>
			<point x="35" y="780" type="curve"/>
			<point x="30" y="780" type="line"/>
			<point x="105" y="620"/>
			<point x="140" y="460"/>
			<point x="140" y="290" type="curve" smooth="yes"/>
			<point x="140" y="120"/>
			<point x="105" y="-40"/>
		</contour>
	</outline>
</glyph>
<glyph name="plus" format="2">
	<advance width="550"/>
	<unicode hex="002B"/>
	<outline>
		<contour>
			<point x="265" y="30" type="line"/>
			<point x="275" y="30" type="line"/>
			<point x="275" y="480" type="line"/>
			<point x="265" y="480" type="line"/>
		</contour>
		<contour>
			<point x="65" y="250" type="line"/>
			<point x="475" y="250" type="line"/>
			<point x="475" y="260" type="line"/>
			<point x="65" y="260" type="line"/>
		</contour>
	</outline>
</glyph>
<glyph name="comma" format="2">
	<advance width="276"/>
	<unicode hex="002C"/>
	<outline>
		<contour>
			<point x="76" y="-161" type="line"/>
			<point x="186" y="89" type="line"/>
			<point x="175" y="94" type="line"/>
			<point x="70" y="-159" type="line"/>
		</contour>
	</outline>
</glyph>
<glyph name="period" format="2">
	<advance width="260"/>
	<unicode hex="002E"/>
	<outline>
		<contour>
			<point x="130" y="-10" type="curve" smooth="yes"/>
			<point x="136" y="-10"/>
			<point x="141" y="-6"/>
			<point x="141" y="1" type="curve" smooth="yes"/>
			<point x="141" y="8"/>
			<point x="136" y="12"/>
			<point x="130" y="12" type="curve" smooth="yes"/>
			<point x="124" y="12"/>
			<point x="119" y="8"/>
			<point x="119" y="1" type="curve" smooth="yes"/>
			<point x="119" y="-6"/>
			<point x="124" y="-10"/>
		</contour>
	</outline>
</glyph>
<glyph name="slash" format="2">
	<advance width="475"/>
	<unicode hex="002F"/>
	<outline>
		<contour>
			<point x="15" y="-150" type="line"/>
			<point x="27" y="-150" type="line"/>
			<point x="460" y="700" type="line"/>
			<point x="448" y="700" type="line"/>
		</contour>
	</outline>
</glyph>
<glyph name="four" format="2">
	<advance width="553"/>
	<unicode hex="0034"/>
	<outline>
		<contour>
			<point x="398" y="0" type="line"/>
			<point x="409" y="0" type="line"/>
			<point x="409" y="700" type="line"/>
			<point x="408" y="700" type="line"/>
			<point x="25" y="140" type="line"/>
			<point x="518" y="140" type="line"/>
			<point x="518" y="150" type="line"/>
			<point x="405" y="150" type="line"/>
			<point x="402" y="150" type="line"/>
			<point x="44" y="150" type="line"/>
			<point x="398" y="666" type="line"/>
			<point x="398" y="147" type="line"/>
			<point x="398" y="142" type="line"/>
		</contour>
	</outline>
</glyph>
<glyph name="five" format="2">
	<advance width="557"/>
	<unicode hex="0035"/>
	<outline>
		<contour>
			<point x="264" y="-10" type="curve" smooth="yes"/>
			<point x="389" y="-10"/>
			<point x="489" y="71"/>
			<point x="489" y="230" type="curve" smooth="yes"/>
			<point x="489" y="359"/>
			<point x="400" y="446"/>
			<point x="290" y="446" type="curve" smooth="yes"/>
			<point x="201" y="446"/>
			<point x="133" y="404"/>
			<point x="103" y="359" type="curve"/>
			<point x="184" y="690" type="line"/>
			<point x="507" y="690" type="line"/>
			<point x="507" y="700" type="line"/>
			<point x="177" y="700" type="line"/>
			<point x="85" y="327" type="line"/>
			<point x="136" y="397"/>
			<point x="203" y="436"/>
			<point x="290" y="436" type="curve" smooth="yes"/>
			<point x="395" y="436"/>
			<point x="479" y="351"/>
			<point x="479" y="230" type="curve" smooth="yes"/>
			<point x="479" y="79"/>
			<point x="384" y="0"/>
			<point x="264" y="0" type="curve" smooth="yes"/>
			<point x="159" y="0"/>
			<point x="100" y="54"/>
			<point x="64" y="142" type="curve"/>
			<point x="55" y="137" type="line"/>
			<point x="91" y="47"/>
			<point x="155" y="-10"/>
		</contour>
	</outline>
</glyph>
<glyph name="seven" format="2">
	<advance width="515"/>
	<unicode hex="0037"/>
	<outline>
		<contour>
			<point x="124" y="0" type="line"/>
			<point x="135" y="0" type="line"/>
			<point x="505" y="700" type="line"/>
			<point x="35" y="700" type="line"/>
			<point x="35" y="690" type="line"/>
			<point x="489" y="690" type="line"/>
		</contour>
	</outline>
</glyph>
<glyph name="semicolon" format="2">
	<advance width="276"/>
	<unicode hex="003B"/>
	<outline>
		<contour>
			<point x="76" y="-161" type="line"/>
			<point x="186" y="89" type="line"/>
			<point x="175" y="94" type="line"/>
			<point x="70" y="-159" type="line"/>
		</contour>
		<contour>
			<point x="160" y="338" type="curve" smooth="yes"/>
			<point x="166" y="338"/>
			<point x="171" y="342"/>
			<point x="171" y="349" type="curve" smooth="yes"/>
			<point x="171" y="356"/>
			<point x="166" y="360"/>
			<point x="160" y="360" type="curve" smooth="yes"/>
			<point x="154" y="360"/>
			<point x="149" y="356"/>
			<point x="149" y="349" type="curve" smooth="yes"/>
			<point x="149" y="342"/>
			<point x="154" y="338"/>
		</contour>
	</outline>
</glyph>
<glyph name="less" format="2">
	<advance width="640"/>
	<unicode hex="003C"/>
	<outline>
		<contour>
			<point x="575" y="45" type="line"/>
			<point x="575" y="55" type="line"/>
			<point x="82" y="257" type="line"/>
			<point x="575" y="460" type="line"/>
			<point x="575" y="470" type="line"/>
			<point x="65" y="260" type="line"/>
			<point x="65" y="254" type="line"/>
		</contour>
	</outline>
</glyph>
<glyph name="equal" format="2">
	<advance width="615"/>
	<unicode hex="003D"/>
	<outline>
		<contour>
			<point x="65" y="310" type="line"/>
			<point x="550" y="310" type="line"/>
			<point x="550" y="320" type="line"/>
			<point x="65" y="320" type="line"/>
		</contour>
		<contour>
			<point x="65" y="185" type="line"/>
			<point x="550" y="185" type="line"/>
			<point x="550" y="195" type="line"/>
			<point x="65" y="195" type="line"/>
		</contour>
	</outline>
</glyph>
<glyph name="greater" format="2">
	<advance width="640"/>
	<unicode hex="003E"/>
	<outline>
		<contour>
			<point x="65" y="45" type="line"/>
			<point x="575" y="255" type="line"/>
			<point x="575" y="261" type="line"/>
			<point x="65" y="470" type="line"/>
			<point x="65" y="460" type="line"/>
			<point x="558" y="258" type="line"/>
			<point x="65" y="55" type="line"/>
		</contour>
	</outline>
</glyph>
<glyph name="question" format="2">
	<advance width="542"/>
	<unicode hex="003F"/>
	<outline>
		<contour>
			<point x="227" y="170" type="line"/>
			<point x="235" y="170" type="line"/>
			<point x="234" y="337" type="line"/>
			<point x="362" y="339"/>
			<point x="462" y="422"/>
			<point x="462" y="520" type="curve" smooth="yes"/>
			<point x="462" y="629"/>
			<point x="389" y="710"/>
			<point x="264" y="710" type="curve" smooth="yes"/>
			<point x="165" y="710"/>
			<point x="111" y="663"/>
			<point x="65" y="593" type="curve"/>
			<point x="74" y="587" type="line"/>
			<point x="118" y="656"/>
			<point x="172" y="700"/>
			<point x="264" y="700" type="curve" smooth="yes"/>
			<point x="384" y="700"/>
			<point x="452" y="621"/>
			<point x="452" y="520" type="curve" smooth="yes"/>
			<point x="452" y="424"/>
			<point x="353" y="345"/>
			<point x="223" y="345" type="curve" smooth="yes"/>
			<point x="222" y="345" type="line"/>
		</contour>
		<contour>
			<point x="225" y="-10" type="curve" smooth="yes"/>
			<point x="231" y="-10"/>
			<point x="236" y="-6"/>
			<point x="236" y="1" type="curve" smooth="yes"/>
			<point x="236" y="8"/>
			<point x="231" y="12"/>
			<point x="225" y="12" type="curve" smooth="yes"/>
			<point x="219" y="12"/>
			<point x="214" y="8"/>
			<point x="214" y="1" type="curve" smooth="yes"/>
			<point x="214" y="-6"/>
			<point x="219" y="-10"/>
		</contour>
	</outline>
</glyph>
<glyph name="E" format="2">
	<advance width="510"/>
	<unicode hex="0045"/>
	<outline>
		<contour>
			<point x="90" y="0" type="line"/>
			<point x="101" y="0" type="line"/>
			<point x="101" y="700" type="line"/>
			<point x="90" y="700" type="line"/>
		</contour>
		<contour>
			<point x="92" y="0" type="line"/>
			<point x="430" y="0" type="line"/>
			<point x="430" y="10" type="line"/>
			<point x="92" y="10" type="line"/>
		</contour>
		<contour>
			<point x="92" y="384" type="line"/>
			<point x="410" y="384" type="line"/>
			<point x="410" y="394" type="line"/>
			<point x="92" y="394" type="line"/>
		</contour>
		<contour>
			<point x="92" y="690" type="line"/>
			<point x="430" y="690" type="line"/>
			<point x="430" y="700" type="line"/>
			<point x="92" y="700" type="line"/>
		</contour>
	</outline>
</glyph>
<glyph name="H" format="2">
	<advance width="647"/>
	<unicode hex="0048"/>
	<outline>
		<contour>
			<point x="546" y="0" type="line"/>
			<point x="557" y="0" type="line"/>
			<point x="557" y="700" type="line"/>
			<point x="546" y="700" type="line"/>
		</contour>
		<contour>
			<point x="90" y="0" type="line"/>
			<point x="101" y="0" type="line"/>
			<point x="101" y="700" type="line"/>
			<point x="90" y="700" type="line"/>
		</contour>
		<contour>
			<point x="93" y="377" type="line"/>
			<point x="553" y="377" type="line"/>
			<point x="553" y="387" type="line"/>
			<point x="93" y="387" type="line"/>
		</contour>
	</outline>
</glyph>
<glyph name="I" format="2">
	<advance width="180"/>
	<unicode hex="0049"/>
	<outline>
		<contour>
			<point x="85" y="0" type="line"/>
			<point x="95" y="0" type="line"/>
			<point x="95" y="700" type="line"/>
			<point x="85" y="700" type="line"/>
		</contour>
	</outline>
</glyph>
<glyph name="M" format="2">
	<advance width="830"/>
	<unicode hex="004D"/>
	<outline>
		<contour>
			<point x="60" y="0" type="line"/>
			<point x="71" y="0" type="line"/>
			<point x="142" y="675" type="line"/>
			<point x="415" y="105" type="line"/>
			<point x="688" y="675" type="line"/>
			<point x="759" y="0" type="line"/>
			<point x="770" y="0" type="line"/>
			<point x="695" y="715" type="line"/>
			<point x="415" y="131" type="line"/>
			<point x="135" y="715" type="line"/>
		</contour>
	</outline>
</glyph>
<glyph name="N" format="2">
	<advance width="725"/>
	<unicode hex="004E"/>
	<outline>
		<contour>
			<point x="635" y="-15" type="line"/>
			<point x="635" y="700" type="line"/>
			<point x="624" y="700" type="line"/>
			<point x="624" y="17" type="line"/>
			<point x="90" y="715" type="line"/>
			<point x="90" y="0" type="line"/>
			<point x="101" y="0" type="line"/>
			<point x="101" y="678" type="line"/>
		</contour>
	</outline>
</glyph>
<glyph name="W" format="2">
	<advance width="950"/>
	<unicode hex="0057"/>
	<outline>
		<contour>
			<point x="255" y="-15" type="line"/>
			<point x="475" y="677" type="line"/>
			<point x="695" y="-15" type="line"/>
			<point x="930" y="700" type="line"/>
			<point x="919" y="700" type="line"/>
			<point x="695" y="26" type="line"/>
			<point x="475" y="715" type="line"/>
			<point x="255" y="26" type="line"/>
			<point x="31" y="700" type="line"/>
			<point x="20" y="700" type="line"/>
		</contour>
	</outline>
</glyph>
<glyph name="bracketleft" format="2">
	<advance width="260"/>
	<unicode hex="005B"/>
	<outline>
		<contour>
			<point x="100" y="-220" type="line"/>
			<point x="240" y="-220" type="line"/>
			<point x="240" y="-209" type="line"/>
			<point x="111" y="-209" type="line"/>
			<point x="111" y="769" type="line"/>
			<point x="240" y="769" type="line"/>
			<point x="240" y="780" type="line"/>
			<point x="100" y="780" type="line"/>
		</contour>
	</outline>
</glyph>
<glyph name="backslash" format="2">
	<advance width="435"/>
	<unicode hex="005C"/>
	<outline>
		<contour>
			<point x="407" y="0" type="line"/>
			<point x="420" y="0" type="line"/>
			<point x="28" y="700" type="line"/>
			<point x="15" y="700" type="line"/>
		</contour>
	</outline>
</glyph>
<glyph name="bracketright" format="2">
	<advance width="260"/>
	<unicode hex="005D"/>
	<outline>
		<contour>
			<point x="20" y="-220" type="line"/>
			<point x="160" y="-220" type="line"/>
			<point x="160" y="780" type="line"/>
			<point x="20" y="780" type="line"/>
			<point x="20" y="769" type="line"/>
			<point x="149" y="769" type="line"/>
			<point x="149" y="-209" type="line"/>
			<point x="20" y="-209" type="line"/>
		</contour>
	</outline>
</glyph>
<glyph name="asciicircum" format="2">
	<advance width="510"/>
	<unicode hex="005E"/>
	<outline>
		<contour>
			<point x="65" y="460" type="line"/>
			<point x="80" y="460" type="line"/>
			<point x="255" y="693" type="line"/>
			<point x="430" y="460" type="line"/>
			<point x="445" y="460" type="line"/>
			<point x="255" y="710" type="line"/>
			<point x="255" y="710" type="line"/>
		</contour>
	</outline>
</glyph>
<glyph name="underscore" format="2">
	<advance width="500"/>
	<unicode hex="005F"/>
	<outline>
		<contour>
			<point x="0" y="-109" type="line"/>
			<point x="500" y="-109" type="line"/>
			<point x="500" y="-98" type="line"/>
			<point x="0" y="-98" type="line"/>
		</contour>
	</outline>
</glyph>
<glyph name="grave" format="2">
	<advance width="353"/>
	<unicode hex="0060"/>
	<outline>
		<contour>
			<point x="273" y="535" type="line"/>
			<point x="278" y="540" type="line"/>
			<point x="108" y="700" type="line"/>
			<point x="100" y="692" type="line"/>
		</contour>
	</outline>
</glyph>
<glyph name="b" format="2">
	<advance width="541"/>
	<unicode hex="0062"/>
	<outline>
		<contour>
			<point x="283" y="-10" type="curve" smooth="yes"/>
			<point x="403" y="-10"/>
			<point x="496" y="83"/>
			<point x="496" y="230" type="curve" smooth="yes"/>
			<point x="496" y="377"/>
			<point x="403" y="470"/>
			<point x="283" y="470" type="curve" smooth="yes"/>
			<point x="160" y="470"/>
			<point x="85" y="349"/>
			<point x="85" y="230" type="curve" smooth="yes"/>
			<point x="85" y="111"/>
			<point x="160" y="-10"/>
		</contour>
		<contour>
			<point x="80" y="0" type="line"/>
			<point x="90" y="0" type="line"/>
			<point x="90" y="780" type="line"/>
			<point x="80" y="780" type="line"/>
		</contour>
		<contour>
			<point x="280" y="0" type="curve" smooth="yes"/>
			<point x="171" y="0"/>
			<point x="90" y="114"/>
			<point x="90" y="230" type="curve" smooth="yes"/>
			<point x="90" y="346"/>
			<point x="171" y="460"/>
			<point x="280" y="460" type="curve" smooth="yes"/>
			<point x="396" y="460"/>
			<point x="486" y="371"/>
			<point x="486" y="230" type="curve" smooth="yes"/>
			<point x="486" y="89"/>
			<point x="396" y="0"/>
		</contour>
	</outline>
</glyph>
<glyph name="f" format="2">
	<advance width="278"/>
	<unicode hex="0066"/>
	<outline>
		<contour>
			<point x="95" y="0" type="line"/>
			<point x="105" y="0" type="line"/>
			<point x="105" y="650" type="line" smooth="yes"/>
			<point x="105" y="706"/>
			<point x="123" y="778"/>
			<point x="203" y="778" type="curve" smooth="yes"/>
			<point x="240" y="778"/>
			<point x="265" y="753"/>
			<point x="281" y="733" type="curve"/>
			<point x="288" y="740" type="line"/>
			<point x="273" y="760"/>
			<point x="246" y="788"/>
			<point x="203" y="788" type="curve" smooth="yes"/>
			<point x="119" y="788"/>
			<point x="95" y="719"/>
			<point x="95" y="650" type="curve" smooth="yes"/>
		</contour>
		<contour>
			<point x="50" y="450" type="line"/>
			<point x="245" y="450" type="line"/>
			<point x="245" y="460" type="line"/>
			<point x="50" y="460" type="line"/>
		</contour>
	</outline>
</glyph>
<glyph name="j" format="2">
	<advance width="180"/>
	<unicode hex="006A"/>
	<outline>
		<contour>
			<point x="-18" y="-220" type="curve" smooth="yes"/>
			<point x="66" y="-220"/>
			<point x="90" y="-151"/>
			<point x="90" y="-82" type="curve" smooth="yes"/>
			<point x="90" y="460" type="line"/>
			<point x="80" y="460" type="line"/>
			<point x="80" y="-82" type="line" smooth="yes"/>
			<point x="80" y="-138"/>
			<point x="62" y="-210"/>
			<point x="-18" y="-210" type="curve" smooth="yes"/>
			<point x="-55" y="-210"/>
			<point x="-80" y="-185"/>
			<point x="-96" y="-165" type="curve"/>
			<point x="-103" y="-172" type="line"/>
			<point x="-88" y="-192"/>
			<point x="-61" y="-220"/>
		</contour>
		<contour>
			<point x="85" y="685" type="curve" smooth="yes"/>
			<point x="92" y="685"/>
			<point x="95" y="689"/>
			<point x="95" y="695" type="curve" smooth="yes"/>
			<point x="95" y="701"/>
			<point x="92" y="705"/>
			<point x="85" y="705" type="curve" smooth="yes"/>
			<point x="78" y="705"/>
			<point x="75" y="701"/>
			<point x="75" y="695" type="curve" smooth="yes"/>
			<point x="75" y="689"/>
			<point x="78" y="685"/>
		</contour>
	</outline>
</glyph>
<glyph name="l" format="2">
	<advance width="180"/>
	<unicode hex="006C"/>
	<outline>
		<contour>
			<point x="85" y="0" type="line"/>
			<point x="95" y="0" type="line"/>
			<point x="95" y="780" type="line"/>
			<point x="85" y="780" type="line"/>
		</contour>
	</outline>
</glyph>
<glyph name="m" format="2">
	<advance width="690"/>
	<unicode hex="006D"/>
	<outline>
		<contour>
			<point x="595" y="0" type="line"/>
			<point x="605" y="0" type="line"/>
			<point x="605" y="320" type="line" smooth="yes"/>
			<point x="605" y="409"/>
			<point x="567" y="470"/>
			<point x="492" y="470" type="curve" smooth="yes"/>
			<point x="417" y="470"/>
			<point x="343" y="389"/>
			<point x="343" y="280" type="curve"/>
			<point x="350" y="280" type="line"/>
			<point x="350" y="375"/>
			<point x="421" y="460"/>
			<point x="492" y="460" type="curve" smooth="yes"/>
			<point x="562" y="460"/>
			<point x="595" y="401"/>
			<point x="595" y="320" type="curve" smooth="yes"/>
		</contour>
		<contour>
			<point x="85" y="0" type="line"/>
			<point x="95" y="0" type="line"/>
			<point x="95" y="460" type="line"/>
			<point x="85" y="460" type="line"/>
		</contour>
		<contour>
			<point x="340" y="0" type="line"/>
			<point x="350" y="0" type="line"/>
			<point x="350" y="320" type="line" smooth="yes"/>
			<point x="350" y="409"/>
			<point x="312" y="470"/>
			<point x="237" y="470" type="curve" smooth="yes"/>
			<point x="162" y="470"/>
			<point x="90" y="389"/>
			<point x="90" y="280" type="curve"/>
			<point x="95" y="280" type="line"/>
			<point x="95" y="376"/>
			<point x="167" y="460"/>
			<point x="237" y="460" type="curve" smooth="yes"/>
			<point x="307" y="460"/>
			<point x="340" y="401"/>
			<point x="340" y="320" type="curve" smooth="yes"/>
		</contour>
	</outline>
</glyph>
<glyph name="v" format="2">
	<advance width="420"/>
	<unicode hex="0076"/>
	<outline>
		<contour>
			<point x="210" y="-15" type="line"/>
			<point x="410" y="460" type="line"/>
			<point x="398" y="460" type="line"/>
			<point x="210" y="10" type="line"/>
			<point x="22" y="460" type="line"/>
			<point x="10" y="460" type="line"/>
		</contour>
	</outline>
</glyph>
<glyph name="x" format="2">
	<advance width="380"/>
	<unicode hex="0078"/>
	<outline>
		<contour>
			<point x="10" y="0" type="line"/>
			<point x="25" y="0" type="line"/>
			<point x="190" y="229" type="line"/>
			<point x="355" y="0" type="line"/>
			<point x="370" y="0" type="line"/>
			<point x="197" y="237" type="line"/>
			<point x="359" y="460" type="line"/>
			<point x="345" y="460" type="line"/>
			<point x="190" y="245" type="line"/>
			<point x="35" y="460" type="line"/>
			<point x="20" y="460" type="line"/>
			<point x="183" y="237" type="line"/>
		</contour>
	</outline>
</glyph>
<glyph name="y" format="2">
	<advance width="425"/>
	<unicode hex="0079"/>
	<outline>
		<contour>
			<point x="104" y="-220" type="line"/>
			<point x="115" y="-220" type="line"/>
			<point x="415" y="460" type="line"/>
			<point x="404" y="460" type="line"/>
			<point x="210" y="20" type="line"/>
			<point x="221" y="20" type="line"/>
			<point x="22" y="460" type="line"/>
			<point x="10" y="460" type="line"/>
			<point x="210" y="20" type="line"/>
		</contour>
	</outline>
</glyph>
<glyph name="z" format="2">
	<advance width="430"/>
	<unicode hex="007A"/>
	<outline>
		<contour>
			<point x="20" y="0" type="line"/>
			<point x="410" y="0" type="line"/>
			<point x="410" y="10" type="line"/>
			<point x="41" y="10" type="line"/>
			<point x="400" y="460" type="line"/>
			<point x="40" y="460" type="line"/>
			<point x="40" y="450" type="line"/>
			<point x="379" y="450" type="line"/>
		</contour>
	</outline>
</glyph>
<glyph name="bar" format="2">
	<advance width="210"/>
	<unicode hex="007C"/>
	<outline>
		<contour>
			<point x="100" y="-215" type="line"/>
			<point x="110" y="-215" type="line"/>
			<point x="110" y="785" type="line"/>
			<point x="100" y="785" type="line"/>
		</contour>
	</outline>
</glyph>
<glyph name="brokenbar" format="2">
	<advance width="210"/>
	<unicode hex="00A6"/>
	<outline>
		<contour>
			<point x="100" y="455" type="line"/>
			<point x="110" y="455" type="line"/>
			<point x="110" y="695" type="line"/>
			<point x="100" y="695" type="line"/>
		</contour>
		<contour>
			<point x="100" y="5" type="line"/>
			<point x="110" y="5" type="line"/>
			<point x="110" y="245" type="line"/>
			<point x="100" y="245" type="line"/>
		</contour>
	</outline>
</glyph>
<glyph name="dieresis" format="2">
	<advance width="422"/>
	<unicode hex="00A8"/>
	<outline>
		<contour>
			<point x="311" y="678" type="curve" smooth="yes"/>
			<point x="317" y="678"/>
			<point x="322" y="682"/>
			<point x="322" y="689" type="curve" smooth="yes"/>
			<point x="322" y="696"/>
			<point x="317" y="700"/>
			<point x="311" y="700" type="curve" smooth="yes"/>
			<point x="305" y="700"/>
			<point x="300" y="696"/>
			<point x="300" y="689" type="curve" smooth="yes"/>
			<point x="300" y="682"/>
			<point x="305" y="678"/>
		</contour>
		<contour>
			<point x="111" y="678" type="curve" smooth="yes"/>
			<point x="117" y="678"/>
			<point x="122" y="682"/>
			<point x="122" y="689" type="curve" smooth="yes"/>
			<point x="122" y="696"/>
			<point x="117" y="700"/>
			<point x="111" y="700" type="curve" smooth="yes"/>
			<point x="105" y="700"/>
			<point x="100" y="696"/>
			<point x="100" y="689" type="curve" smooth="yes"/>
			<point x="100" y="682"/>
			<point x="105" y="678"/>
		</contour>
	</outline>
</glyph>
<glyph name="guillemotleft" format="2">
	<advance width="485"/>
	<unicode hex="00AB"/>
	<outline>
		<contour>
			<point x="408" y="20" type="line"/>
			<point x="415" y="27" type="line"/>
			<point x="210" y="255" type="line"/>
			<point x="415" y="483" type="line"/>
			<point x="408" y="490" type="line"/>
			<point x="200" y="255" type="line"/>
		</contour>
		<contour>
			<point x="248" y="20" type="line"/>
			<point x="255" y="27" type="line"/>
			<point x="50" y="255" type="line"/>
			<point x="255" y="483" type="line"/>
			<point x="248" y="490" type="line"/>
			<point x="40" y="255" type="line"/>
		</contour>
	</outline>
</glyph>
<glyph name="logicalnot" format="2">
	<advance width="620"/>
	<unicode hex="00AC"/>
	<outline>
		<contour>
			<point x="545" y="175" type="line"/>
			<point x="555" y="175" type="line"/>
			<point x="555" y="375" type="line"/>
			<point x="65" y="375" type="line"/>
			<point x="65" y="365" type="line"/>
			<point x="545" y="365" type="line"/>
		</contour>
	</outline>
</glyph>
<glyph name="registered" format="2">
	<advance width="800"/>
	<unicode hex="00AE"/>
	<outline>
		<contour>
			<point x="400" y="-10" type="curve" smooth="yes"/>
			<point x="604" y="-10"/>
			<point x="760" y="141"/>
			<point x="760" y="350" type="curve" smooth="yes"/>
			<point x="760" y="559"/>
			<point x="604" y="710"/>
			<point x="400" y="710" type="curve" smooth="yes"/>
			<point x="196" y="710"/>
			<point x="40" y="559"/>
			<point x="40" y="350" type="curve" smooth="yes"/>
			<point x="40" y="141"/>
			<point x="196" y="-10"/>
		</contour>
		<contour>
			<point x="300" y="150" type="line"/>
			<point x="307" y="150" type="line"/>
			<point x="307" y="570" type="line"/>
			<point x="300" y="570" type="line"/>
		</contour>
		<contour>
			<point x="497" y="150" type="line"/>
			<point x="506" y="150" type="line"/>
			<point x="373" y="340" type="line"/>
			<point x="365" y="340" type="line"/>
		</contour>
		<contour>
			<point x="400" y="0" type="curve" smooth="yes"/>
			<point x="207" y="0"/>
			<point x="50" y="147"/>
			<point x="50" y="350" type="curve" smooth="yes"/>
			<point x="50" y="553"/>
			<point x="207" y="700"/>
			<point x="400" y="700" type="curve" smooth="yes"/>
			<point x="593" y="700"/>
			<point x="750" y="553"/>
			<point x="750" y="350" type="curve" smooth="yes"/>
			<point x="750" y="147"/>
			<point x="593" y="0"/>
		</contour>
		<contour>
			<point x="301" y="338" type="line"/>
			<point x="369" y="338" type="line" smooth="yes"/>
			<point x="450" y="338"/>
			<point x="511" y="377"/>
			<point x="511" y="454" type="curve" smooth="yes"/>
			<point x="511" y="531"/>
			<point x="450" y="570"/>
			<point x="369" y="570" type="curve" smooth="yes"/>
			<point x="301" y="570" type="line"/>
			<point x="301" y="563" type="line"/>
			<point x="369" y="563" type="line" smooth="yes"/>
			<point x="448" y="563"/>
			<point x="504" y="528"/>
			<point x="504" y="454" type="curve" smooth="yes"/>
			<point x="504" y="380"/>
			<point x="448" y="344"/>
			<point x="369" y="344" type="curve" smooth="yes"/>
			<point x="301" y="344" type="line"/>
		</contour>
	</outline>
</glyph>
<glyph name="macron" format="2">
	<advance width="510"/>
	<unicode hex="00AF"/>
	<outline>
		<contour>
			<point x="80" y="665" type="line"/>
			<point x="430" y="665" type="line"/>
			<point x="430" y="675" type="line"/>
			<point x="80" y="675" type="line"/>
		</contour>
	</outline>
</glyph>
<glyph name="plusminus" format="2">
	<advance width="610"/>
	<unicode hex="00B1"/>
	<outline>
		<contour>
			<point x="65" y="380" type="line"/>
			<point x="545" y="380" type="line"/>
			<point x="545" y="390" type="line"/>
			<point x="65" y="390" type="line"/>
		</contour>
		<contour>
			<point x="65" y="0" type="line"/>
			<point x="545" y="0" type="line"/>
			<point x="545" y="10" type="line"/>
			<point x="65" y="10" type="line"/>
		</contour>
		<contour>
			<point x="300" y="150" type="line"/>
			<point x="310" y="150" type="line"/>
			<point x="310" y="620" type="line"/>
			<point x="300" y="620" type="line"/>
		</contour>
	</outline>
</glyph>
<glyph name="acute" format="2">
	<advance width="353"/>
	<unicode hex="00B4"/>
	<outline>
		<contour>
			<point x="80" y="535" type="line"/>
			<point x="253" y="692" type="line"/>
			<point x="245" y="700" type="line"/>
			<point x="75" y="540" type="line"/>
		</contour>
	</outline>
</glyph>
<glyph name="paragraph" format="2">
	<advance width="448"/>
	<unicode hex="00B6"/>
	<outline>
		<contour>
			<point x="288" y="270" type="curve"/>
			<point x="288" y="700" type="line"/>
			<point x="163" y="700"/>
			<point x="60" y="624"/>
			<point x="60" y="485" type="curve" smooth="yes"/>
			<point x="60" y="346"/>
			<point x="163" y="270"/>
		</contour>
		<contour>
			<point x="288" y="-220" type="line"/>
			<point x="298" y="-220" type="line"/>
			<point x="298" y="700" type="line"/>
			<point x="288" y="700" type="line"/>
		</contour>
		<contour>
			<point x="378" y="-220" type="line"/>
			<point x="388" y="-220" type="line"/>
			<point x="388" y="700" type="line"/>
			<point x="378" y="700" type="line"/>
		</contour>
		<contour>
			<point x="288" y="690" type="line"/>
			<point x="388" y="690" type="line"/>
			<point x="388" y="700" type="line"/>
			<point x="288" y="700" type="line"/>
		</contour>
	</outline>
</glyph>
<glyph name="periodcentered" format="2">
	<advance width="242"/>
	<unicode hex="00B7"/>
	<outline>
		<contour>
			<point x="121" y="210" type="curve" smooth="yes"/>
			<point x="127" y="210"/>
			<point x="132" y="214"/>
			<point x="132" y="221" type="curve" smooth="yes"/>
			<point x="132" y="228"/>
			<point x="127" y="232"/>
			<point x="121" y="232" type="curve" smooth="yes"/>
			<point x="115" y="232"/>
			<point x="110" y="228"/>
			<point x="110" y="221" type="curve" smooth="yes"/>
			<point x="110" y="214"/>
			<point x="115" y="210"/>
		</contour>
	</outline>
</glyph>
<glyph name="uni00B9" format="2">
	<advance width="470"/>
	<unicode hex="00B9"/>
	<outline>
		<contour>
			<point x="245" y="274" type="line"/>
			<point x="251" y="274" type="line"/>
			<point x="251" y="697" type="line"/>
			<point x="143" y="673" type="line"/>
			<point x="143" y="666" type="line"/>
			<point x="245" y="689" type="line"/>
		</contour>
	</outline>
</glyph>
<glyph name="guillemotright" format="2">
	<advance width="485"/>
	<unicode hex="00BB"/>
	<outline>
		<contour>
			<point x="237" y="20" type="line"/>
			<point x="445" y="255" type="line"/>
			<point x="237" y="490" type="line"/>
			<point x="230" y="483" type="line"/>
			<point x="435" y="255" type="line"/>
			<point x="230" y="27" type="line"/>
		</contour>
		<contour>
			<point x="77" y="20" type="line"/>
			<point x="285" y="255" type="line"/>
			<point x="77" y="490" type="line"/>
			<point x="70" y="483" type="line"/>
			<point x="275" y="255" type="line"/>
			<point x="70" y="27" type="line"/>
		</contour>
	</outline>
</glyph>
<glyph name="onequarter" format="2">
	<advance width="754"/>
	<unicode hex="00BC"/>
	<outline>
		<contour>
			<point x="98" y="0" type="line"/>
			<point x="110" y="0" type="line"/>
			<point x="683" y="700" type="line"/>
			<point x="671" y="700" type="line"/>
		</contour>
		<contour>
			<point x="123" y="274" type="line"/>
			<point x="129" y="274" type="line"/>
			<point x="129" y="697" type="line"/>
			<point x="21" y="673" type="line"/>
			<point x="21" y="666" type="line"/>
			<point x="123" y="689" type="line"/>
		</contour>
		<contour>
			<point x="401" y="84" type="line"/>
			<point x="697" y="84" type="line"/>
			<point x="697" y="90" type="line"/>
			<point x="629" y="90" type="line" smooth="yes"/>
			<point x="627" y="90" type="line" smooth="yes"/>
			<point x="407" y="90" type="line"/>
		</contour>
		<contour>
			<point x="625" y="0" type="line"/>
			<point x="631" y="0" type="line"/>
			<point x="631" y="420" type="line"/>
			<point x="631" y="420" type="line"/>
			<point x="401" y="84" type="line"/>
			<point x="408" y="84" type="line"/>
			<point x="625" y="400" type="line"/>
			<point x="625" y="88" type="line" smooth="yes"/>
			<point x="625" y="85" type="line" smooth="yes"/>
		</contour>
	</outline>
</glyph>
<glyph name="AE" format="2">
	<advance width="896"/>
	<unicode hex="00C6"/>
	<outline>
		<contour>
			<point x="5" y="0" type="line"/>
			<point x="18" y="0" type="line"/>
			<point x="498" y="700" type="line"/>
			<point x="485" y="700" type="line"/>
		</contour>
		<contour>
			<point x="207" y="280" type="line"/>
			<point x="497" y="280" type="line"/>
			<point x="497" y="290" type="line"/>
			<point x="207" y="290" type="line"/>
		</contour>
		<contour>
			<point x="497" y="0" type="line"/>
			<point x="816" y="0" type="line"/>
			<point x="816" y="10" type="line"/>
			<point x="497" y="10" type="line"/>
		</contour>
		<contour>
			<point x="490" y="0" type="line"/>
			<point x="501" y="0" type="line"/>
			<point x="501" y="700" type="line"/>
			<point x="490" y="700" type="line"/>
		</contour>
		<contour>
			<point x="497" y="384" type="line"/>
			<point x="796" y="384" type="line"/>
			<point x="796" y="394" type="line"/>
			<point x="497" y="394" type="line"/>
		</contour>
		<contour>
			<point x="500" y="690" type="line"/>
			<point x="816" y="690" type="line"/>
			<point x="816" y="700" type="line"/>
			<point x="485" y="700" type="line"/>
		</contour>
	</outline>
</glyph>
<glyph name="Ecircumflex" format="2">
	<advance width="510"/>
	<unicode hex="00CA"/>
	<outline>
		<contour>
			<point x="107" y="768" type="line"/>
			<point x="260" y="903" type="line"/>
			<point x="413" y="768" type="line"/>
			<point x="420" y="775" type="line"/>
			<point x="260" y="915" type="line"/>
			<point x="100" y="775" type="line"/>
		</contour>
		<contour>
			<point x="92" y="0" type="line"/>
			<point x="430" y="0" type="line"/>
			<point x="430" y="10" type="line"/>
			<point x="92" y="10" type="line"/>
		</contour>
		<contour>
			<point x="90" y="0" type="line"/>
			<point x="101" y="0" type="line"/>
			<point x="101" y="700" type="line"/>
			<point x="90" y="700" type="line"/>
		</contour>
		<contour>
			<point x="92" y="384" type="line"/>
			<point x="410" y="384" type="line"/>
			<point x="410" y="394" type="line"/>
			<point x="92" y="394" type="line"/>
		</contour>
		<contour>
			<point x="92" y="690" type="line"/>
			<point x="430" y="690" type="line"/>
			<point x="430" y="700" type="line"/>
			<point x="92" y="700" type="line"/>
		</contour>
	</outline>
</glyph>
<glyph name="Iacute" format="2">
	<advance width="180"/>
	<unicode hex="00CD"/>
	<outline>
		<contour>
			<point x="72" y="768" type="line"/>
			<point x="246" y="925" type="line"/>
			<point x="238" y="933" type="line"/>
			<point x="68" y="773" type="line"/>
		</contour>
		<contour>
			<point x="85" y="0" type="line"/>
			<point x="95" y="0" type="line"/>
			<point x="95" y="700" type="line"/>
			<point x="85" y="700" type="line"/>
		</contour>
	</outline>
</glyph>
<glyph name="Icircumflex" format="2">
	<advance width="180"/>
	<unicode hex="00CE"/>
	<outline>
		<contour>
			<point x="-63" y="768" type="line"/>
			<point x="90" y="903" type="line"/>
			<point x="243" y="768" type="line"/>
			<point x="250" y="775" type="line"/>
			<point x="90" y="915" type="line"/>
			<point x="-70" y="775" type="line"/>
		</contour>
		<contour>
			<point x="85" y="0" type="line"/>
			<point x="95" y="0" type="line"/>
			<point x="95" y="700" type="line"/>
			<point x="85" y="700" type="line"/>
		</contour>
	</outline>
</glyph>
<glyph name="Eth" format="2">
	<advance width="680"/>
	<unicode hex="00D0"/>
	<outline>
		<contour>
			<point x="95" y="0" type="line"/>
			<point x="250" y="0" type="line" smooth="yes"/>
			<point x="454" y="0"/>
			<point x="585" y="141"/>
			<point x="585" y="350" type="curve" smooth="yes"/>
			<point x="585" y="559"/>
			<point x="454" y="700"/>
			<point x="250" y="700" type="curve" smooth="yes"/>
			<point x="95" y="700" type="line"/>
			<point x="95" y="689" type="line"/>
			<point x="250" y="689" type="line" smooth="yes"/>
			<point x="448" y="689"/>
			<point x="574" y="553"/>
			<point x="574" y="350" type="curve" smooth="yes"/>
			<point x="574" y="147"/>
			<point x="448" y="11"/>
			<point x="250" y="11" type="curve" smooth="yes"/>
			<point x="95" y="11" type="line"/>
		</contour>
		<contour>
			<point x="90" y="0" type="line"/>
			<point x="101" y="0" type="line"/>
			<point x="101" y="700" type="line"/>
			<point x="90" y="700" type="line"/>
		</contour>
		<contour>
			<point x="5" y="345" type="line"/>
			<point x="305" y="345" type="line"/>
			<point x="305" y="355" type="line"/>
			<point x="5" y="355" type="line"/>
		</contour>
	</outline>
</glyph>
<glyph name="multiply" format="2">
	<advance width="578"/>
	<unicode hex="00D7"/>
	<outline>
		<contour>
			<point x="88" y="46" type="line"/>
			<point x="289" y="248" type="line"/>
			<point x="490" y="46" type="line"/>
			<point x="497" y="53" type="line"/>
			<point x="295" y="254" type="line"/>
			<point x="498" y="456" type="line"/>
			<point x="491" y="463" type="line"/>
			<point x="289" y="260" type="line"/>
			<point x="87" y="463" type="line"/>
			<point x="80" y="456" type="line"/>
			<point x="283" y="254" type="line"/>
			<point x="81" y="53" type="line"/>
		</contour>
	</outline>
</glyph>
<glyph name="Udieresis" format="2">
	<advance width="576"/>
	<unicode hex="00DC"/>
	<outline>
		<contour>
			<point x="288" y="-10" type="curve" smooth="yes"/>
			<point x="423" y="-10"/>
			<point x="491" y="81"/>
			<point x="491" y="220" type="curve" smooth="yes"/>
			<point x="491" y="700" type="line"/>
			<point x="480" y="700" type="line"/>
			<point x="480" y="220" type="line" smooth="yes"/>
			<point x="480" y="84"/>
			<point x="408" y="1"/>
			<point x="288" y="1" type="curve" smooth="yes"/>
			<point x="168" y="1"/>
			<point x="96" y="84"/>
			<point x="96" y="220" type="curve" smooth="yes"/>
			<point x="96" y="700" type="line"/>
			<point x="85" y="700" type="line"/>
			<point x="85" y="220" type="line" smooth="yes"/>
			<point x="85" y="81"/>
			<point x="153" y="-10"/>
		</contour>
		<contour>
			<point x="198" y="768" type="curve" smooth="yes"/>
			<point x="204" y="768"/>
			<point x="209" y="772"/>
			<point x="209" y="779" type="curve" smooth="yes"/>
			<point x="209" y="786"/>
			<point x="204" y="790"/>
			<point x="198" y="790" type="curve" smooth="yes"/>
			<point x="192" y="790"/>
			<point x="187" y="786"/>
			<point x="187" y="779" type="curve" smooth="yes"/>
			<point x="187" y="772"/>
			<point x="192" y="768"/>
		</contour>
		<contour>
			<point x="378" y="768" type="curve" smooth="yes"/>
			<point x="384" y="768"/>
			<point x="389" y="772"/>
			<point x="389" y="779" type="curve" smooth="yes"/>
			<point x="389" y="786"/>
			<point x="384" y="790"/>
			<point x="378" y="790" type="curve" smooth="yes"/>
			<point x="372" y="790"/>
			<point x="367" y="786"/>
			<point x="367" y="779" type="curve" smooth="yes"/>
			<point x="367" y="772"/>
			<point x="372" y="768"/>
		</contour>
	</outline>
</glyph>
<glyph name="atilde" format="2">
	<advance width="435"/>
	<unicode hex="00E3"/>
	<outline>
		<contour>
			<point x="355" y="0" type="line"/>
			<point x="365" y="0" type="line"/>
			<point x="365" y="320" type="line" smooth="yes"/>
			<point x="365" y="409"/>
			<point x="323" y="470"/>
			<point x="233" y="470" type="curve" smooth="yes"/>
			<point x="160" y="470"/>
			<point x="110" y="434"/>
			<point x="77" y="403" type="curve"/>
			<point x="84" y="395" type="line"/>
			<point x="121" y="430"/>
			<point x="167" y="460"/>
			<point x="233" y="460" type="curve" smooth="yes"/>
			<point x="316" y="460"/>
			<point x="355" y="406"/>
			<point x="355" y="320" type="curve" smooth="yes"/>
		</contour>
		<contour>
			<point x="193" y="-10" type="curve" smooth="yes"/>
			<point x="295" y="-10"/>
			<point x="360" y="71"/>
			<point x="360" y="160" type="curve"/>
			<point x="355" y="160" type="line"/>
			<point x="355" y="74"/>
			<point x="283" y="0"/>
			<point x="193" y="0" type="curve" smooth="yes"/>
			<point x="123" y="0"/>
			<point x="50" y="37"/>
			<point x="50" y="135" type="curve" smooth="yes"/>
			<point x="50" y="227"/>
			<point x="138" y="271"/>
			<point x="221" y="271" type="curve" smooth="yes"/>
			<point x="289" y="271"/>
			<point x="334" y="247"/>
			<point x="358" y="225" type="curve"/>
			<point x="358" y="235" type="line"/>
			<point x="337" y="253"/>
			<point x="299" y="281"/>
			<point x="221" y="281" type="curve" smooth="yes"/>
			<point x="130" y="281"/>
			<point x="40" y="232"/>
			<point x="40" y="135" type="curve" smooth="yes"/>
			<point x="40" y="31"/>
			<point x="118" y="-10"/>
		</contour>
		<contour>
			<point x="106" y="580" type="line"/>
			<point x="106" y="605"/>
			<point x="121" y="631"/>
			<point x="162" y="631" type="curve" smooth="yes"/>
			<point x="207" y="631"/>
			<point x="227" y="584"/>
			<point x="282" y="584" type="curve" smooth="yes"/>
			<point x="312" y="584"/>
			<point x="332" y="600"/>
			<point x="348" y="637" type="curve"/>
			<point x="340" y="640" type="line"/>
			<point x="325" y="608"/>
			<point x="313" y="592"/>
			<point x="284" y="592" type="curve" smooth="yes"/>
			<point x="230" y="592"/>
			<point x="215" y="639"/>
			<point x="160" y="639" type="curve" smooth="yes"/>
			<point x="115" y="639"/>
			<point x="98" y="610"/>
			<point x="98" y="581" type="curve"/>
		</contour>
	</outline>
</glyph>
<glyph name="ae" format="2">
	<advance width="825"/>
	<unicode hex="00E6"/>
	<outline>
		<contour>
			<point x="563" y="-10" type="curve" smooth="yes"/>
			<point x="682" y="-10"/>
			<point x="733" y="37"/>
			<point x="779" y="107" type="curve"/>
			<point x="771" y="113" type="line"/>
			<point x="731" y="52"/>
			<point x="680" y="0"/>
			<point x="563" y="0" type="curve" smooth="yes"/>
			<point x="453" y="0"/>
			<point x="365" y="99"/>
			<point x="365" y="235" type="curve"/>
			<point x="365" y="235" type="line"/>
			<point x="365" y="357"/>
			<point x="449" y="460"/>
			<point x="579" y="460" type="curve" smooth="yes"/>
			<point x="669" y="460"/>
			<point x="776" y="384"/>
			<point x="776" y="250" type="curve" smooth="yes"/>
			<point x="776" y="230" type="line"/>
			<point x="785" y="228" type="line"/>
			<point x="786" y="236"/>
			<point x="787" y="245"/>
			<point x="787" y="253" type="curve" smooth="yes"/>
			<point x="787" y="398"/>
			<point x="663" y="470"/>
			<point x="583" y="470" type="curve" smooth="yes"/>
			<point x="458" y="470"/>
			<point x="380" y="392"/>
			<point x="361" y="279" type="curve" smooth="yes"/>
			<point x="358" y="263"/>
			<point x="355" y="247"/>
			<point x="355" y="230" type="curve" smooth="yes"/>
			<point x="355" y="91"/>
			<point x="448" y="-10"/>
		</contour>
		<contour>
			<point x="194" y="-10" type="curve" smooth="yes"/>
			<point x="293" y="-10"/>
			<point x="363" y="77"/>
			<point x="363" y="166" type="curve"/>
			<point x="355" y="167" type="line"/>
			<point x="355" y="81"/>
			<point x="282" y="0"/>
			<point x="194" y="0" type="curve" smooth="yes"/>
			<point x="95" y="0"/>
			<point x="50" y="63"/>
			<point x="50" y="132" type="curve" smooth="yes"/>
			<point x="50" y="218"/>
			<point x="123" y="271"/>
			<point x="225" y="271" type="curve" smooth="yes"/>
			<point x="293" y="271"/>
			<point x="340" y="243"/>
			<point x="358" y="225" type="curve"/>
			<point x="358" y="235" type="line"/>
			<point x="344" y="248"/>
			<point x="303" y="281"/>
			<point x="225" y="281" type="curve" smooth="yes"/>
			<point x="119" y="281"/>
			<point x="40" y="226"/>
			<point x="40" y="132" type="curve" smooth="yes"/>
			<point x="40" y="54"/>
			<point x="92" y="-10"/>
		</contour>
		<contour>
			<point x="355" y="159" type="line"/>
			<point x="362" y="159" type="line"/>
			<point x="362" y="330" type="line" smooth="yes"/>
			<point x="362" y="404"/>
			<point x="323" y="470"/>
			<point x="238" y="470" type="curve" smooth="yes"/>
			<point x="155" y="470"/>
			<point x="109" y="432"/>
			<point x="77" y="403" type="curve"/>
			<point x="84" y="395" type="line"/>
			<point x="114" y="423"/>
			<point x="159" y="460"/>
			<point x="235" y="460" type="curve" smooth="yes"/>
			<point x="325" y="460"/>
			<point x="355" y="393"/>
			<point x="355" y="320" type="curve" smooth="yes"/>
		</contour>
		<contour>
			<point x="362" y="228" type="line"/>
			<point x="785" y="228" type="line"/>
			<point x="779" y="238" type="line"/>
			<point x="362" y="238" type="line"/>
		</contour>
	</outline>
</glyph>
<glyph name="icircumflex" format="2">
	<advance width="190"/>
	<unicode hex="00EE"/>
	<outline>
		<contour>
			<point x="-58" y="530" type="line"/>
			<point x="95" y="665" type="line"/>
			<point x="248" y="530" type="line"/>
			<point x="255" y="537" type="line"/>
			<point x="95" y="677" type="line"/>
			<point x="-65" y="537" type="line"/>
		</contour>
		<contour>
			<point x="90" y="0" type="line"/>
			<point x="100" y="0" type="line"/>
			<point x="100" y="460" type="line"/>
			<point x="90" y="460" type="line"/>
		</contour>
	</outline>
</glyph>
<glyph name="ntilde" format="2">
	<advance width="475"/>
	<unicode hex="00F1"/>
	<outline>
		<contour>
			<point x="380" y="0" type="line"/>
			<point x="390" y="0" type="line"/>
			<point x="390" y="320" type="line" smooth="yes"/>
			<point x="390" y="409"/>
			<point x="352" y="470"/>
			<point x="257" y="470" type="curve" smooth="yes"/>
			<point x="162" y="470"/>
			<point x="90" y="389"/>
			<point x="90" y="280" type="curve"/>
			<point x="95" y="280" type="line"/>
			<point x="95" y="375"/>
			<point x="166" y="460"/>
			<point x="257" y="460" type="curve" smooth="yes"/>
			<point x="347" y="460"/>
			<point x="380" y="401"/>
			<point x="380" y="320" type="curve" smooth="yes"/>
		</contour>
		<contour>
			<point x="85" y="0" type="line"/>
			<point x="95" y="0" type="line"/>
			<point x="95" y="460" type="line"/>
			<point x="85" y="460" type="line"/>
		</contour>
		<contour>
			<point x="121" y="550" type="line"/>
			<point x="121" y="575"/>
			<point x="135" y="601"/>
			<point x="176" y="601" type="curve" smooth="yes"/>
			<point x="221" y="601"/>
			<point x="242" y="554"/>
			<point x="297" y="554" type="curve" smooth="yes"/>
			<point x="327" y="554"/>
			<point x="347" y="570"/>
			<point x="363" y="607" type="curve"/>
			<point x="354" y="610" type="line"/>
			<point x="339" y="578"/>
			<point x="327" y="562"/>
			<point x="298" y="562" type="curve" smooth="yes"/>
			<point x="244" y="562"/>
			<point x="229" y="609"/>
			<point x="174" y="609" type="curve" smooth="yes"/>
			<point x="129" y="609"/>
			<point x="112" y="580"/>
			<point x="112" y="551" type="curve"/>
		</contour>
	</outline>
</glyph>
<glyph name="ograve" format="2">
	<advance width="556"/>
	<unicode hex="00F2"/>
	<outline>
		<contour>
			<point x="278" y="-10" type="curve" smooth="yes"/>
			<point x="410" y="-10"/>
			<point x="511" y="91"/>
			<point x="511" y="230" type="curve" smooth="yes"/>
			<point x="511" y="369"/>
			<point x="410" y="470"/>
			<point x="278" y="470" type="curve" smooth="yes"/>
			<point x="146" y="470"/>
			<point x="45" y="369"/>
			<point x="45" y="230" type="curve" smooth="yes"/>
			<point x="45" y="91"/>
			<point x="146" y="-10"/>
		</contour>
		<contour>
			<point x="278" y="0" type="curve" smooth="yes"/>
			<point x="153" y="0"/>
			<point x="55" y="96"/>
			<point x="55" y="230" type="curve" smooth="yes"/>
			<point x="55" y="364"/>
			<point x="153" y="460"/>
			<point x="278" y="460" type="curve" smooth="yes"/>
			<point x="403" y="460"/>
			<point x="501" y="364"/>
			<point x="501" y="230" type="curve" smooth="yes"/>
			<point x="501" y="96"/>
			<point x="403" y="0"/>
		</contour>
		<contour>
			<point x="316" y="530" type="line"/>
			<point x="320" y="535" type="line"/>
			<point x="150" y="695" type="line"/>
			<point x="142" y="687" type="line"/>
		</contour>
	</outline>
</glyph>
<glyph name="yacute" format="2">
	<advance width="425"/>
	<unicode hex="00FD"/>
	<outline>
		<contour>
			<point x="104" y="-220" type="line"/>
			<point x="115" y="-220" type="line"/>
			<point x="415" y="460" type="line"/>
			<point x="404" y="460" type="line"/>
			<point x="210" y="20" type="line"/>
			<point x="221" y="20" type="line"/>
			<point x="22" y="460" type="line"/>
			<point x="10" y="460" type="line"/>
			<point x="210" y="20" type="line"/>
		</contour>
		<contour>
			<point x="195" y="530" type="line"/>
			<point x="368" y="687" type="line"/>
			<point x="360" y="695" type="line"/>
			<point x="190" y="535" type="line"/>
		</contour>
	</outline>
</glyph>
<glyph name="amacron" format="2">
	<advance width="435"/>
	<unicode hex="0101"/>
	<outline>
		<contour>
			<point x="355" y="0" type="line"/>
			<point x="365" y="0" type="line"/>
			<point x="365" y="320" type="line" smooth="yes"/>
			<point x="365" y="409"/>
			<point x="323" y="470"/>
			<point x="233" y="470" type="curve" smooth="yes"/>
			<point x="160" y="470"/>
			<point x="110" y="434"/>
			<point x="77" y="403" type="curve"/>
			<point x="84" y="395" type="line"/>
			<point x="121" y="430"/>
			<point x="167" y="460"/>
			<point x="233" y="460" type="curve" smooth="yes"/>
			<point x="316" y="460"/>
			<point x="355" y="406"/>
			<point x="355" y="320" type="curve" smooth="yes"/>
		</contour>
		<contour>
			<point x="193" y="-10" type="curve" smooth="yes"/>
			<point x="295" y="-10"/>
			<point x="360" y="71"/>
			<point x="360" y="160" type="curve"/>
			<point x="355" y="160" type="line"/>
			<point x="355" y="74"/>
			<point x="283" y="0"/>
			<point x="193" y="0" type="curve" smooth="yes"/>
			<point x="123" y="0"/>
			<point x="50" y="37"/>
			<point x="50" y="135" type="curve" smooth="yes"/>
			<point x="50" y="227"/>
			<point x="138" y="271"/>
			<point x="221" y="271" type="curve" smooth="yes"/>
			<point x="289" y="271"/>
			<point x="334" y="247"/>
			<point x="358" y="225" type="curve"/>
			<point x="358" y="235" type="line"/>
			<point x="337" y="253"/>
			<point x="299" y="281"/>
			<point x="221" y="281" type="curve" smooth="yes"/>
			<point x="130" y="281"/>
			<point x="40" y="232"/>
			<point x="40" y="135" type="curve" smooth="yes"/>
			<point x="40" y="31"/>
			<point x="118" y="-10"/>
		</contour>
		<contour>
			<point x="58" y="550" type="line"/>
			<point x="408" y="550" type="line"/>
			<point x="408" y="560" type="line"/>
			<point x="58" y="560" type="line"/>
		</contour>
	</outline>
</glyph>
<glyph name="Aogonek" format="2">
	<advance width="600"/>
	<unicode hex="0104"/>
	<outline>
		<contour>
			<point x="15" y="0" type="line"/>
			<point x="27" y="0" type="line"/>
			<point x="135" y="273" type="line"/>
			<point x="136" y="277" type="line"/>
			<point x="300" y="688" type="line"/>
			<point x="465" y="276" type="line"/>
			<point x="466" y="273" type="line"/>
			<point x="573" y="0" type="line"/>
			<point x="585" y="0" type="line"/>
			<point x="300" y="715" type="line"/>
		</contour>
		<contour>
			<point x="528" y="-220" type="curve" smooth="yes"/>
			<point x="571" y="-220"/>
			<point x="611" y="-200"/>
			<point x="626" y="-180" type="curve"/>
			<point x="619" y="-173" type="line"/>
			<point x="604" y="-191"/>
			<point x="568" y="-210"/>
			<point x="528" y="-210" type="curve" smooth="yes"/>
			<point x="478" y="-210"/>
			<point x="435" y="-186"/>
			<point x="435" y="-140" type="curve" smooth="yes"/>
			<point x="435" y="-83"/>
			<point x="517" y="-32"/>
			<point x="585" y="0" type="curve"/>
			<point x="578" y="10" type="line"/>
			<point x="508" y="-26"/>
			<point x="425" y="-71"/>
			<point x="425" y="-140" type="curve" smooth="yes"/>
			<point x="425" y="-189"/>
			<point x="464" y="-220"/>
		</contour>
		<contour>
			<point x="129" y="272" type="line"/>
			<point x="472" y="272" type="line"/>
			<point x="472" y="282" type="line"/>
			<point x="129" y="282" type="line"/>
		</contour>
	</outline>
</glyph>
<glyph name="aogonek" format="2">
	<advance width="435"/>
	<unicode hex="0105"/>
	<outline>
		<contour>
			<point x="355" y="0" type="line"/>
			<point x="365" y="0" type="line"/>
			<point x="365" y="320" type="line" smooth="yes"/>
			<point x="365" y="409"/>
			<point x="323" y="470"/>
			<point x="233" y="470" type="curve" smooth="yes"/>
			<point x="160" y="470"/>
			<point x="110" y="434"/>
			<point x="77" y="403" type="curve"/>
			<point x="84" y="395" type="line"/>
			<point x="121" y="430"/>
			<point x="167" y="460"/>
			<point x="233" y="460" type="curve" smooth="yes"/>
			<point x="316" y="460"/>
			<point x="355" y="406"/>
			<point x="355" y="320" type="curve" smooth="yes"/>
		</contour>
		<contour>
			<point x="308" y="-220" type="curve" smooth="yes"/>
			<point x="351" y="-220"/>
			<point x="391" y="-200"/>
			<point x="406" y="-180" type="curve"/>
			<point x="399" y="-173" type="line"/>
			<point x="384" y="-191"/>
			<point x="348" y="-210"/>
			<point x="308" y="-210" type="curve" smooth="yes"/>
			<point x="258" y="-210"/>
			<point x="215" y="-186"/>
			<point x="215" y="-140" type="curve" smooth="yes"/>
			<point x="215" y="-83"/>
			<point x="297" y="-32"/>
			<point x="365" y="0" type="curve"/>
			<point x="358" y="10" type="line"/>
			<point x="288" y="-26"/>
			<point x="205" y="-71"/>
			<point x="205" y="-140" type="curve" smooth="yes"/>
			<point x="205" y="-189"/>
			<point x="244" y="-220"/>
		</contour>
		<contour>
			<point x="193" y="-10" type="curve" smooth="yes"/>
			<point x="295" y="-10"/>
			<point x="360" y="71"/>
			<point x="360" y="160" type="curve"/>
			<point x="355" y="160" type="line"/>
			<point x="355" y="74"/>
			<point x="283" y="0"/>
			<point x="193" y="0" type="curve" smooth="yes"/>
			<point x="123" y="0"/>
			<point x="50" y="37"/>
			<point x="50" y="135" type="curve" smooth="yes"/>
			<point x="50" y="227"/>
			<point x="138" y="271"/>
			<point x="221" y="271" type="curve" smooth="yes"/>
			<point x="289" y="271"/>
			<point x="334" y="247"/>
			<point x="358" y="225" type="curve"/>
			<point x="358" y="235" type="line"/>
			<point x="337" y="253"/>
			<point x="299" y="281"/>
			<point x="221" y="281" type="curve" smooth="yes"/>
			<point x="130" y="281"/>
			<point x="40" y="232"/>
			<point x="40" y="135" type="curve" smooth="yes"/>
			<point x="40" y="31"/>
			<point x="118" y="-10"/>
		</contour>
	</outline>
</glyph>
<glyph name="Dcaron" format="2">
	<advance width="635"/>
	<unicode hex="010E"/>
	<outline>
		<contour>
			<point x="95" y="0" type="line"/>
			<point x="250" y="0" type="line" smooth="yes"/>
			<point x="454" y="0"/>
			<point x="585" y="141"/>
			<point x="585" y="350" type="curve" smooth="yes"/>
			<point x="585" y="559"/>
			<point x="454" y="700"/>
			<point x="250" y="700" type="curve" smooth="yes"/>
			<point x="95" y="700" type="line"/>
			<point x="95" y="689" type="line"/>
			<point x="250" y="689" type="line" smooth="yes"/>
			<point x="450" y="689"/>
			<point x="574" y="553"/>
			<point x="574" y="350" type="curve" smooth="yes"/>
			<point x="574" y="146"/>
			<point x="450" y="11"/>
			<point x="250" y="11" type="curve" smooth="yes"/>
			<point x="95" y="11" type="line"/>
		</contour>
		<contour>
			<point x="90" y="0" type="line"/>
			<point x="101" y="0" type="line"/>
			<point x="101" y="700" type="line"/>
			<point x="90" y="700" type="line"/>
		</contour>
		<contour>
			<point x="318" y="798" type="line"/>
			<point x="478" y="938" type="line"/>
			<point x="470" y="946" type="line"/>
			<point x="318" y="810" type="line"/>
			<point x="166" y="946" type="line"/>
			<point x="158" y="938" type="line"/>
		</contour>
	</outline>
</glyph>
<glyph name="Ecaron" format="2">
	<advance width="510"/>
	<unicode hex="011A"/>
	<outline>
		<contour>
			<point x="260" y="768" type="line"/>
			<point x="420" y="908" type="line"/>
			<point x="412" y="916" type="line"/>
			<point x="260" y="780" type="line"/>
			<point x="108" y="916" type="line"/>
			<point x="100" y="908" type="line"/>
		</contour>
		<contour>
			<point x="92" y="0" type="line"/>
			<point x="430" y="0" type="line"/>
			<point x="430" y="10" type="line"/>
			<point x="92" y="10" type="line"/>
		</contour>
		<contour>
			<point x="90" y="0" type="line"/>
			<point x="101" y="0" type="line"/>
			<point x="101" y="700" type="line"/>
			<point x="90" y="700" type="line"/>
		</contour>
		<contour>
			<point x="92" y="384" type="line"/>
			<point x="410" y="384" type="line"/>
			<point x="410" y="394" type="line"/>
			<point x="92" y="394" type="line"/>
		</contour>
		<contour>
			<point x="92" y="690" type="line"/>
			<point x="430" y="690" type="line"/>
			<point x="430" y="700" type="line"/>
			<point x="92" y="700" type="line"/>
		</contour>
	</outline>
</glyph>
<glyph name="Hbar" format="2">
	<advance width="647"/>
	<unicode hex="0126"/>
	<outline>
		<contour>
			<point x="546" y="0" type="line"/>
			<point x="557" y="0" type="line"/>
			<point x="557" y="700" type="line"/>
			<point x="546" y="700" type="line"/>
		</contour>
		<contour>
			<point x="90" y="0" type="line"/>
			<point x="101" y="0" type="line"/>
			<point x="101" y="700" type="line"/>
			<point x="90" y="700" type="line"/>
		</contour>
		<contour>
			<point x="93" y="377" type="line"/>
			<point x="553" y="377" type="line"/>
			<point x="553" y="387" type="line"/>
			<point x="93" y="387" type="line"/>
		</contour>
		<contour>
			<point x="5" y="605" type="line"/>
			<point x="642" y="605" type="line"/>
			<point x="642" y="615" type="line"/>
			<point x="5" y="615" type="line"/>
		</contour>
	</outline>
</glyph>
<glyph name="Itilde" format="2">
	<advance width="180"/>
	<unicode hex="0128"/>
	<outline>
		<contour>
			<point x="-16" y="830" type="line"/>
			<point x="-16" y="855"/>
			<point x="-2" y="881"/>
			<point x="39" y="881" type="curve" smooth="yes"/>
			<point x="84" y="881"/>
			<point x="105" y="834"/>
			<point x="160" y="834" type="curve" smooth="yes"/>
			<point x="190" y="834"/>
			<point x="210" y="850"/>
			<point x="226" y="887" type="curve"/>
			<point x="217" y="890" type="line"/>
			<point x="202" y="858"/>
			<point x="190" y="842"/>
			<point x="161" y="842" type="curve" smooth="yes"/>
			<point x="107" y="842"/>
			<point x="92" y="889"/>
			<point x="37" y="889" type="curve" smooth="yes"/>
			<point x="-8" y="889"/>
			<point x="-25" y="860"/>
			<point x="-25" y="831" type="curve"/>
		</contour>
		<contour>
			<point x="85" y="0" type="line"/>
			<point x="95" y="0" type="line"/>
			<point x="95" y="700" type="line"/>
			<point x="85" y="700" type="line"/>
		</contour>
	</outline>
</glyph>
<glyph name="itilde" format="2">
	<advance width="190"/>
	<unicode hex="0129"/>
	<outline>
		<contour>
			<point x="-9" y="590" type="line"/>
			<point x="-9" y="615"/>
			<point x="5" y="641"/>
			<point x="46" y="641" type="curve" smooth="yes"/>
			<point x="91" y="641"/>
			<point x="112" y="594"/>
			<point x="167" y="594" type="curve" smooth="yes"/>
			<point x="197" y="594"/>
			<point x="217" y="610"/>
			<point x="233" y="647" type="curve"/>
			<point x="224" y="650" type="line"/>
			<point x="209" y="618"/>
			<point x="197" y="602"/>
			<point x="168" y="602" type="curve" smooth="yes"/>
			<point x="114" y="602"/>
			<point x="99" y="649"/>
			<point x="44" y="649" type="curve" smooth="yes"/>
			<point x="-1" y="649"/>
			<point x="-18" y="620"/>
			<point x="-18" y="591" type="curve"/>
		</contour>
		<contour>
			<point x="90" y="0" type="line"/>
			<point x="100" y="0" type="line"/>
			<point x="100" y="460" type="line"/>
			<point x="90" y="460" type="line"/>
		</contour>
	</outline>
</glyph>
<glyph name="Imacron" format="2">
	<advance width="180"/>
	<unicode hex="012A"/>
	<outline>
		<contour>
			<point x="85" y="0" type="line"/>
			<point x="95" y="0" type="line"/>
			<point x="95" y="700" type="line"/>
			<point x="85" y="700" type="line"/>
		</contour>
		<contour>
			<point x="-52" y="835" type="line"/>
			<point x="298" y="835" type="line"/>
			<point x="298" y="845" type="line"/>
			<point x="-52" y="845" type="line"/>
		</contour>
	</outline>
</glyph>
<glyph name="Ibreve" format="2">
	<advance width="180"/>
	<unicode hex="012C"/>
	<outline>
		<contour>
			<point x="88" y="770" type="curve" smooth="yes"/>
			<point x="193" y="770"/>
			<point x="246" y="841"/>
			<point x="246" y="910" type="curve"/>
			<point x="236" y="910" type="line"/>
			<point x="236" y="844"/>
			<point x="180" y="780"/>
			<point x="88" y="780" type="curve" smooth="yes"/>
			<point x="-4" y="780"/>
			<point x="-60" y="844"/>
			<point x="-60" y="910" type="curve"/>
			<point x="-70" y="910" type="line"/>
			<point x="-70" y="841"/>
			<point x="-17" y="770"/>
		</contour>
		<contour>
			<point x="85" y="0" type="line"/>
			<point x="95" y="0" type="line"/>
			<point x="95" y="700" type="line"/>
			<point x="85" y="700" type="line"/>
		</contour>
	</outline>
</glyph>
<glyph name="Idotaccent" format="2">
	<advance width="180"/>
	<unicode hex="0130"/>
	<outline>
		<contour>
			<point x="85" y="0" type="line"/>
			<point x="95" y="0" type="line"/>
			<point x="95" y="700" type="line"/>
			<point x="85" y="700" type="line"/>
		</contour>
		<contour>
			<point x="90" y="775" type="curve" smooth="yes"/>
			<point x="96" y="775"/>
			<point x="101" y="779"/>
			<point x="101" y="786" type="curve" smooth="yes"/>
			<point x="101" y="793"/>
			<point x="96" y="797"/>
			<point x="90" y="797" type="curve" smooth="yes"/>
			<point x="84" y="797"/>
			<point x="79" y="793"/>
			<point x="79" y="786" type="curve" smooth="yes"/>
			<point x="79" y="779"/>
			<point x="84" y="775"/>
		</contour>
	</outline>
</glyph>
<glyph name="IJ" format="2">
	<advance width="490"/>
	<unicode hex="0132"/>
	<outline>
		<contour>
			<point x="234" y="-220" type="curve" smooth="yes"/>
			<point x="328" y="-220"/>
			<point x="357" y="-169"/>
			<point x="357" y="-60" type="curve" smooth="yes"/>
			<point x="357" y="700" type="line"/>
			<point x="346" y="700" type="line"/>
			<point x="346" y="-50" type="line" smooth="yes"/>
			<point x="346" y="-166"/>
			<point x="322" y="-209"/>
			<point x="233" y="-209" type="curve" smooth="yes"/>
			<point x="187" y="-209"/>
			<point x="147" y="-182"/>
			<point x="123" y="-158" type="curve"/>
			<point x="116" y="-165" type="line"/>
			<point x="131" y="-185"/>
			<point x="181" y="-220"/>
		</contour>
		<contour>
			<point x="85" y="0" type="line"/>
			<point x="95" y="0" type="line"/>
			<point x="95" y="700" type="line"/>
			<point x="85" y="700" type="line"/>
		</contour>
	</outline>
</glyph>
<glyph name="ij" format="2">
	<advance width="510"/>
	<unicode hex="0133"/>
	<outline>
		<contour>
			<point x="242" y="-220" type="curve" smooth="yes"/>
			<point x="326" y="-220"/>
			<point x="350" y="-151"/>
			<point x="350" y="-82" type="curve" smooth="yes"/>
			<point x="350" y="460" type="line"/>
			<point x="340" y="460" type="line"/>
			<point x="340" y="-82" type="line" smooth="yes"/>
			<point x="340" y="-138"/>
			<point x="322" y="-210"/>
			<point x="242" y="-210" type="curve" smooth="yes"/>
			<point x="205" y="-210"/>
			<point x="180" y="-185"/>
			<point x="164" y="-165" type="curve"/>
			<point x="157" y="-172" type="line"/>
			<point x="172" y="-192"/>
			<point x="199" y="-220"/>
		</contour>
		<contour>
			<point x="90" y="0" type="line"/>
			<point x="100" y="0" type="line"/>
			<point x="100" y="460" type="line"/>
			<point x="90" y="460" type="line"/>
		</contour>
		<contour>
			<point x="95" y="685" type="curve" smooth="yes"/>
			<point x="102" y="685"/>
			<point x="105" y="689"/>
			<point x="105" y="695" type="curve" smooth="yes"/>
			<point x="105" y="701"/>
			<point x="102" y="705"/>
			<point x="95" y="705" type="curve" smooth="yes"/>
			<point x="88" y="705"/>
			<point x="85" y="701"/>
			<point x="85" y="695" type="curve" smooth="yes"/>
			<point x="85" y="689"/>
			<point x="88" y="685"/>
		</contour>
		<contour>
			<point x="345" y="685" type="curve" smooth="yes"/>
			<point x="352" y="685"/>
			<point x="355" y="689"/>
			<point x="355" y="695" type="curve" smooth="yes"/>
			<point x="355" y="701"/>
			<point x="352" y="705"/>
			<point x="345" y="705" type="curve" smooth="yes"/>
			<point x="338" y="705"/>
			<point x="335" y="701"/>
			<point x="335" y="695" type="curve" smooth="yes"/>
			<point x="335" y="689"/>
			<point x="338" y="685"/>
		</contour>
	</outline>
</glyph>
<glyph name="Jcircumflex" format="2">
	<advance width="197"/>
	<unicode hex="0134"/>
	<outline>
		<contour>
			<point x="-16" y="-220" type="curve" smooth="yes"/>
			<point x="78" y="-220"/>
			<point x="107" y="-169"/>
			<point x="107" y="-60" type="curve" smooth="yes"/>
			<point x="107" y="700" type="line"/>
			<point x="96" y="700" type="line"/>
			<point x="96" y="-50" type="line" smooth="yes"/>
			<point x="96" y="-166"/>
			<point x="72" y="-209"/>
			<point x="-17" y="-209" type="curve" smooth="yes"/>
			<point x="-63" y="-209"/>
			<point x="-103" y="-182"/>
			<point x="-127" y="-158" type="curve"/>
			<point x="-134" y="-165" type="line"/>
			<point x="-119" y="-185"/>
			<point x="-69" y="-220"/>
		</contour>
		<contour>
			<point x="-52" y="768" type="line"/>
			<point x="102" y="903" type="line"/>
			<point x="254" y="768" type="line"/>
			<point x="262" y="775" type="line"/>
			<point x="102" y="915" type="line"/>
			<point x="-58" y="775" type="line"/>
		</contour>
	</outline>
</glyph>
<glyph name="Lacute" format="2">
	<advance width="430"/>
	<unicode hex="0139"/>
	<outline>
		<contour>
			<point x="90" y="0" type="line"/>
			<point x="410" y="0" type="line"/>
			<point x="410" y="10" type="line"/>
			<point x="100" y="10" type="line"/>
			<point x="100" y="700" type="line"/>
			<point x="90" y="700" type="line"/>
		</contour>
		<contour>
			<point x="252" y="768" type="line"/>
			<point x="426" y="925" type="line"/>
			<point x="418" y="933" type="line"/>
			<point x="248" y="773" type="line"/>
		</contour>
	</outline>
</glyph>
<glyph name="lacute" format="2">
	<advance width="180"/>
	<unicode hex="013A"/>
	<outline>
		<contour>
			<point x="92" y="840" type="line"/>
			<point x="266" y="997" type="line"/>
			<point x="258" y="1005" type="line"/>
			<point x="88" y="845" type="line"/>
		</contour>
		<contour>
			<point x="85" y="0" type="line"/>
			<point x="95" y="0" type="line"/>
			<point x="95" y="780" type="line"/>
			<point x="85" y="780" type="line"/>
		</contour>
	</outline>
</glyph>
<glyph name="uni013B" format="2">
	<advance width="430"/>
	<unicode hex="013B"/>
	<outline>
		<contour>
			<point x="90" y="0" type="line"/>
			<point x="410" y="0" type="line"/>
			<point x="410" y="10" type="line"/>
			<point x="100" y="10" type="line"/>
			<point x="100" y="700" type="line"/>
			<point x="90" y="700" type="line"/>
		</contour>
		<contour>
			<point x="158" y="-315" type="line"/>
			<point x="268" y="-65" type="line"/>
			<point x="257" y="-60" type="line"/>
			<point x="152" y="-313" type="line"/>
		</contour>
	</outline>
</glyph>
<glyph name="lcaron" format="2">
	<advance width="230"/>
	<unicode hex="013E"/>
	<outline>
		<contour>
			<point x="221" y="509" type="line"/>
			<point x="331" y="759" type="line"/>
			<point x="320" y="764" type="line"/>
			<point x="215" y="511" type="line"/>
		</contour>
		<contour>
			<point x="85" y="0" type="line"/>
			<point x="95" y="0" type="line"/>
			<point x="95" y="780" type="line"/>
			<point x="85" y="780" type="line"/>
		</contour>
	</outline>
</glyph>
<glyph name="Ldot" format="2">
	<advance width="430"/>
	<unicode hex="013F"/>
	<outline>
		<contour>
			<point x="90" y="0" type="line"/>
			<point x="410" y="0" type="line"/>
			<point x="410" y="10" type="line"/>
			<point x="100" y="10" type="line"/>
			<point x="100" y="700" type="line"/>
			<point x="90" y="700" type="line"/>
		</contour>
		<contour>
			<point x="280" y="403" type="curve" smooth="yes"/>
			<point x="286" y="403"/>
			<point x="291" y="407"/>
			<point x="291" y="414" type="curve" smooth="yes"/>
			<point x="291" y="421"/>
			<point x="286" y="425"/>
			<point x="280" y="425" type="curve" smooth="yes"/>
			<point x="274" y="425"/>
			<point x="269" y="421"/>
			<point x="269" y="414" type="curve" smooth="yes"/>
			<point x="269" y="407"/>
			<point x="274" y="403"/>
		</contour>
	</outline>
</glyph>
<glyph name="Lslash" format="2">
	<advance width="375"/>
	<unicode hex="0141"/>
	<outline>
		<contour>
			<point x="80" y="0" type="line"/>
			<point x="365" y="0" type="line"/>
			<point x="365" y="10" type="line"/>
			<point x="91" y="10" type="line"/>
			<point x="91" y="700" type="line"/>
			<point x="80" y="700" type="line"/>
		</contour>
		<contour>
			<point x="-9" y="387" type="line"/>
			<point x="261" y="557" type="line"/>
			<point x="255" y="565" type="line"/>
			<point x="-15" y="395" type="line"/>
		</contour>
	</outline>
</glyph>
<glyph name="lslash" format="2">
	<advance width="160"/>
	<unicode hex="0142"/>
	<outline>
		<contour>
			<point x="-8" y="387" type="line"/>
			<point x="172" y="537" type="line"/>
			<point x="165" y="545" type="line"/>
			<point x="-15" y="395" type="line"/>
		</contour>
		<contour>
			<point x="75" y="0" type="line"/>
			<point x="85" y="0" type="line"/>
			<point x="85" y="780" type="line"/>
			<point x="75" y="780" type="line"/>
		</contour>
	</outline>
</glyph>
<glyph name="napostrophe" format="2">
	<advance width="615"/>
	<unicode hex="0149"/>
	<outline>
		<contour>
			<point x="470" y="0" type="line"/>
			<point x="480" y="0" type="line"/>
			<point x="480" y="320" type="line" smooth="yes"/>
			<point x="480" y="409"/>
			<point x="442" y="470"/>
			<point x="347" y="470" type="curve" smooth="yes"/>
			<point x="252" y="470"/>
			<point x="180" y="389"/>
			<point x="180" y="280" type="curve"/>
			<point x="185" y="280" type="line"/>
			<point x="185" y="375"/>
			<point x="256" y="460"/>
			<point x="347" y="460" type="curve" smooth="yes"/>
			<point x="437" y="460"/>
			<point x="470" y="401"/>
			<point x="470" y="320" type="curve" smooth="yes"/>
		</contour>
		<contour>
			<point x="175" y="0" type="line"/>
			<point x="185" y="0" type="line"/>
			<point x="185" y="460" type="line"/>
			<point x="175" y="460" type="line"/>
		</contour>
		<contour>
			<point x="80" y="470" type="line"/>
			<point x="90" y="470" type="line"/>
			<point x="185" y="700" type="line"/>
			<point x="173" y="700" type="line"/>
		</contour>
	</outline>
</glyph>
<glyph name="Obreve" format="2">
	<advance width="774"/>
	<unicode hex="014E"/>
	<outline>
		<contour>
			<point x="387" y="-8" type="curve" smooth="yes"/>
			<point x="581" y="-8"/>
			<point x="724" y="141"/>
			<point x="724" y="350" type="curve" smooth="yes"/>
			<point x="724" y="559"/>
			<point x="581" y="708"/>
			<point x="387" y="708" type="curve" smooth="yes"/>
			<point x="193" y="708"/>
			<point x="50" y="559"/>
			<point x="50" y="350" type="curve" smooth="yes"/>
			<point x="50" y="141"/>
			<point x="193" y="-8"/>
		</contour>
		<contour>
			<point x="387" y="3" type="curve" smooth="yes"/>
			<point x="196" y="3"/>
			<point x="61" y="149"/>
			<point x="61" y="350" type="curve" smooth="yes"/>
			<point x="61" y="551"/>
			<point x="196" y="697"/>
			<point x="387" y="697" type="curve" smooth="yes"/>
			<point x="578" y="697"/>
			<point x="713" y="551"/>
			<point x="713" y="350" type="curve" smooth="yes"/>
			<point x="713" y="149"/>
			<point x="578" y="3"/>
		</contour>
		<contour>
			<point x="387" y="768" type="curve" smooth="yes"/>
			<point x="492" y="768"/>
			<point x="545" y="839"/>
			<point x="545" y="908" type="curve"/>
			<point x="535" y="908" type="line"/>
			<point x="535" y="842"/>
			<point x="479" y="778"/>
			<point x="387" y="778" type="curve" smooth="yes"/>
			<point x="295" y="778"/>
			<point x="239" y="842"/>
			<point x="239" y="908" type="curve"/>
			<point x="229" y="908" type="line"/>
			<point x="229" y="839"/>
			<point x="282" y="768"/>
		</contour>
	</outline>
</glyph>
<glyph name="tcaron" format="2">
	<advance width="280"/>
	<unicode hex="0165"/>
	<outline>
		<contour>
			<point x="175" y="520" type="line"/>
			<point x="285" y="770" type="line"/>
			<point x="274" y="775" type="line"/>
			<point x="169" y="522" type="line"/>
		</contour>
		<contour>
			<point x="90" y="0" type="line"/>
			<point x="100" y="0" type="line"/>
			<point x="100" y="620" type="line"/>
			<point x="90" y="620" type="line"/>
		</contour>
		<contour>
			<point x="15" y="450" type="line"/>
			<point x="175" y="450" type="line"/>
			<point x="175" y="460" type="line"/>
			<point x="15" y="460" type="line"/>
		</contour>
	</outline>
</glyph>
<glyph name="Umacron" format="2">
	<advance width="576"/>
	<unicode hex="016A"/>
	<outline>
		<contour>
			<point x="288" y="-10" type="curve" smooth="yes"/>
			<point x="423" y="-10"/>
			<point x="491" y="81"/>
			<point x="491" y="220" type="curve" smooth="yes"/>
			<point x="491" y="700" type="line"/>
			<point x="480" y="700" type="line"/>
			<point x="480" y="220" type="line" smooth="yes"/>
			<point x="480" y="84"/>
			<point x="408" y="1"/>
			<point x="288" y="1" type="curve" smooth="yes"/>
			<point x="168" y="1"/>
			<point x="96" y="84"/>
			<point x="96" y="220" type="curve" smooth="yes"/>
			<point x="96" y="700" type="line"/>
			<point x="85" y="700" type="line"/>
			<point x="85" y="220" type="line" smooth="yes"/>
			<point x="85" y="81"/>
			<point x="153" y="-10"/>
		</contour>
		<contour>
			<point x="113" y="768" type="line"/>
			<point x="463" y="768" type="line"/>
			<point x="463" y="778" type="line"/>
			<point x="113" y="778" type="line"/>
		</contour>
	</outline>
</glyph>
<glyph name="ycircumflex" format="2">
	<advance width="425"/>
	<unicode hex="0177"/>
	<outline>
		<contour>
			<point x="104" y="-220" type="line"/>
			<point x="115" y="-220" type="line"/>
			<point x="415" y="460" type="line"/>
			<point x="404" y="460" type="line"/>
			<point x="210" y="20" type="line"/>
			<point x="221" y="20" type="line"/>
			<point x="22" y="460" type="line"/>
			<point x="10" y="460" type="line"/>
			<point x="210" y="20" type="line"/>
		</contour>
		<contour>
			<point x="59.5" y="530" type="line"/>
			<point x="212.5" y="665" type="line"/>
			<point x="365.5" y="530" type="line"/>
			<point x="372.5" y="537" type="line"/>
			<point x="212.5" y="677" type="line"/>
			<point x="52.5" y="537" type="line"/>
		</contour>
	</outline>
</glyph>
<glyph name="zacute" format="2">
	<advance width="430"/>
	<unicode hex="017A"/>
	<outline>
		<contour>
			<point x="20" y="0" type="line"/>
			<point x="410" y="0" type="line"/>
			<point x="410" y="10" type="line"/>
			<point x="41" y="10" type="line"/>
			<point x="400" y="460" type="line"/>
			<point x="40" y="460" type="line"/>
			<point x="40" y="450" type="line"/>
			<point x="379" y="450" type="line"/>
		</contour>
		<contour>
			<point x="192" y="530" type="line"/>
			<point x="366" y="687" type="line"/>
			<point x="358" y="695" type="line"/>
			<point x="188" y="535" type="line"/>
		</contour>
	</outline>
</glyph>
<glyph name="zdotaccent" format="2">
	<advance width="430"/>
	<unicode hex="017C"/>
	<outline>
		<contour>
			<point x="20" y="0" type="line"/>
			<point x="410" y="0" type="line"/>
			<point x="410" y="10" type="line"/>
			<point x="41" y="10" type="line"/>
			<point x="400" y="460" type="line"/>
			<point x="40" y="460" type="line"/>
			<point x="40" y="450" type="line"/>
			<point x="379" y="450" type="line"/>
		</contour>
		<contour>
			<point x="220" y="560" type="curve" smooth="yes"/>
			<point x="226" y="560"/>
			<point x="231" y="564"/>
			<point x="231" y="571" type="curve" smooth="yes"/>
			<point x="231" y="578"/>
			<point x="226" y="582"/>
			<point x="220" y="582" type="curve" smooth="yes"/>
			<point x="214" y="582"/>
			<point x="209" y="578"/>
			<point x="209" y="571" type="curve" smooth="yes"/>
			<point x="209" y="564"/>
			<point x="214" y="560"/>
		</contour>
	</outline>
</glyph>
<glyph name="zcaron" format="2">
	<advance width="430"/>
	<unicode hex="017E"/>
	<outline>
		<contour>
			<point x="20" y="0" type="line"/>
			<point x="410" y="0" type="line"/>
			<point x="410" y="10" type="line"/>
			<point x="40" y="10" type="line"/>
			<point x="400" y="460" type="line"/>
			<point x="40" y="460" type="line"/>
			<point x="40" y="450" type="line"/>
			<point x="380" y="450" type="line"/>
		</contour>
		<contour>
			<point x="220" y="530" type="line"/>
			<point x="380" y="670" type="line"/>
			<point x="372" y="678" type="line"/>
			<point x="220" y="542" type="line"/>
			<point x="68" y="678" type="line"/>
			<point x="60" y="670" type="line"/>
		</contour>
	</outline>
</glyph>
<glyph name="uni0237" format="2">
	<advance width="180"/>
	<unicode hex="0237"/>
	<outline>
		<contour>
			<point x="-18" y="-220" type="curve" smooth="yes"/>
			<point x="66" y="-220"/>
			<point x="90" y="-151"/>
			<point x="90" y="-82" type="curve" smooth="yes"/>
			<point x="90" y="460" type="line"/>
			<point x="80" y="460" type="line"/>
			<point x="80" y="-82" type="line" smooth="yes"/>
			<point x="80" y="-138"/>
			<point x="62" y="-210"/>
			<point x="-18" y="-210" type="curve" smooth="yes"/>
			<point x="-55" y="-210"/>
			<point x="-80" y="-185"/>
			<point x="-96" y="-165" type="curve"/>
			<point x="-103" y="-172" type="line"/>
			<point x="-88" y="-192"/>
			<point x="-61" y="-220"/>
		</contour>
	</outline>
</glyph>
<glyph name="circumflex" format="2">
	<advance width="480"/>
	<unicode hex="02C6"/>
	<outline>
		<contour>
			<point x="87" y="583" type="line"/>
			<point x="240" y="718" type="line"/>
			<point x="393" y="583" type="line"/>
			<point x="400" y="590" type="line"/>
			<point x="240" y="730" type="line"/>
			<point x="80" y="590" type="line"/>
		</contour>
	</outline>
</glyph>
<glyph name="breve" format="2">
	<advance width="546"/>
	<unicode hex="02D8"/>
	<outline>
		<contour>
			<point x="273" y="710" type="curve" smooth="yes"/>
			<point x="378" y="710"/>
			<point x="431" y="781"/>
			<point x="431" y="850" type="curve"/>
			<point x="421" y="850" type="line"/>
			<point x="421" y="784"/>
			<point x="365" y="720"/>
			<point x="273" y="720" type="curve" smooth="yes"/>
			<point x="181" y="720"/>
			<point x="125" y="784"/>
			<point x="125" y="850" type="curve"/>
			<point x="115" y="850" type="line"/>
			<point x="115" y="781"/>
			<point x="168" y="710"/>
		</contour>
	</outline>
</glyph>
<glyph name="dotaccent" format="2">
	<advance width="242"/>
	<unicode hex="02D9"/>
	<outline>
		<contour>
			<point x="121" y="740" type="curve" smooth="yes"/>
			<point x="127" y="740"/>
			<point x="132" y="744"/>
			<point x="132" y="751" type="curve" smooth="yes"/>
			<point x="132" y="758"/>
			<point x="127" y="762"/>
			<point x="121" y="762" type="curve" smooth="yes"/>
			<point x="115" y="762"/>
			<point x="110" y="758"/>
			<point x="110" y="751" type="curve" smooth="yes"/>
			<point x="110" y="744"/>
			<point x="115" y="740"/>
		</contour>
	</outline>
</glyph>
<glyph name="ogonek" format="2">
	<advance width="250"/>
	<unicode hex="02DB"/>
	<outline>
		<contour>
			<point x="119" y="-220" type="curve" smooth="yes"/>
			<point x="162" y="-220"/>
			<point x="202" y="-200"/>
			<point x="217" y="-180" type="curve"/>
			<point x="210" y="-173" type="line"/>
			<point x="195" y="-191"/>
			<point x="159" y="-210"/>
			<point x="119" y="-210" type="curve" smooth="yes"/>
			<point x="69" y="-210"/>
			<point x="26" y="-186"/>
			<point x="26" y="-140" type="curve" smooth="yes"/>
			<point x="26" y="-83"/>
			<point x="108" y="-32"/>
			<point x="176" y="0" type="curve"/>
			<point x="169" y="10" type="line"/>
			<point x="99" y="-26"/>
			<point x="16" y="-71"/>
			<point x="16" y="-140" type="curve" smooth="yes"/>
			<point x="16" y="-189"/>
			<point x="55" y="-220"/>
		</contour>
	</outline>
</glyph>
<glyph name="tilde" format="2">
	<advance width="530"/>
	<unicode hex="02DC"/>
	<outline>
		<contour>
			<point x="151" y="648" type="line"/>
			<point x="151" y="673"/>
			<point x="165" y="699"/>
			<point x="206" y="699" type="curve" smooth="yes"/>
			<point x="251" y="699"/>
			<point x="272" y="652"/>
			<point x="327" y="652" type="curve" smooth="yes"/>
			<point x="357" y="652"/>
			<point x="377" y="668"/>
			<point x="393" y="705" type="curve"/>
			<point x="384" y="708" type="line"/>
			<point x="369" y="676"/>
			<point x="357" y="660"/>
			<point x="328" y="660" type="curve" smooth="yes"/>
			<point x="274" y="660"/>
			<point x="259" y="707"/>
			<point x="204" y="707" type="curve" smooth="yes"/>
			<point x="159" y="707"/>
			<point x="142" y="678"/>
			<point x="142" y="649" type="curve"/>
		</contour>
	</outline>
</glyph>
<glyph name="uni0400" format="2">
	<advance width="550"/>
	<unicode hex="0400"/>
	<outline>
		<contour>
			<point x="298" y="795" type="line"/>
			<point x="303" y="800" type="line"/>
			<point x="133" y="960" type="line"/>
			<point x="125" y="952" type="line"/>
		</contour>
		<contour>
			<point x="92" y="0" type="line"/>
			<point x="430" y="0" type="line"/>
			<point x="430" y="10" type="line"/>
			<point x="92" y="10" type="line"/>
		</contour>
		<contour>
			<point x="90" y="0" type="line"/>
			<point x="101" y="0" type="line"/>
			<point x="101" y="700" type="line"/>
			<point x="90" y="700" type="line"/>
		</contour>
		<contour>
			<point x="92" y="384" type="line"/>
			<point x="410" y="384" type="line"/>
			<point x="410" y="394" type="line"/>
			<point x="92" y="394" type="line"/>
		</contour>
		<contour>
			<point x="92" y="690" type="line"/>
			<point x="430" y="690" type="line"/>
			<point x="430" y="700" type="line"/>
			<point x="92" y="700" type="line"/>
		</contour>
	</outline>
</glyph>
<glyph name="uni0403" format="2">
	<advance width="435"/>
	<unicode hex="0403"/>
	<outline>
		<contour>
			<point x="80" y="0" type="line"/>
			<point x="90" y="0" type="line"/>
			<point x="90" y="690" type="line"/>
			<point x="425" y="690" type="line"/>
			<point x="425" y="700" type="line"/>
			<point x="80" y="700" type="line"/>
		</contour>
		<contour>
			<point x="212.5" y="795" type="line"/>
			<point x="385.5" y="952" type="line"/>
			<point x="377.5" y="960" type="line"/>
			<point x="207.5" y="800" type="line"/>
		</contour>
	</outline>
</glyph>
<glyph name="uni040C" format="2">
	<advance width="565"/>
	<unicode hex="040C"/>
	<outline>
		<contour>
			<point x="422" y="0" type="line"/>
			<point x="439" y="0" type="line"/>
			<point x="109" y="372" type="line"/>
			<point x="424" y="700" type="line"/>
			<point x="408" y="700" type="line"/>
			<point x="94" y="372" type="line"/>
		</contour>
		<contour>
			<point x="85" y="0" type="line"/>
			<point x="96" y="0" type="line"/>
			<point x="96" y="700" type="line"/>
			<point x="85" y="700" type="line"/>
		</contour>
		<contour>
			<point x="272.5" y="795" type="line"/>
			<point x="445.5" y="952" type="line"/>
			<point x="437.5" y="960" type="line"/>
			<point x="267.5" y="800" type="line"/>
		</contour>
	</outline>
</glyph>
<glyph name="uni040D" format="2">
	<advance width="725"/>
	<unicode hex="040D"/>
	<outline>
		<contour>
			<point x="90" y="-35" type="line"/>
			<point x="635" y="717" type="line"/>
			<point x="635" y="735" type="line"/>
			<point x="90" y="-17" type="line"/>
		</contour>
		<contour>
			<point x="90" y="-35" type="line"/>
			<point x="100" y="-13" type="line"/>
			<point x="100" y="700" type="line"/>
			<point x="90" y="700" type="line"/>
		</contour>
		<contour>
			<point x="625" y="0" type="line"/>
			<point x="635" y="0" type="line"/>
			<point x="635" y="735" type="line"/>
			<point x="625" y="715" type="line"/>
		</contour>
		<contour>
			<point x="363" y="770" type="line"/>
			<point x="368" y="775" type="line"/>
			<point x="198" y="935" type="line"/>
			<point x="190" y="927" type="line"/>
		</contour>
	</outline>
</glyph>
<glyph name="uni040E" format="2">
	<advance width="480"/>
	<unicode hex="040E"/>
	<outline>
		<contour>
			<point x="141" y="0" type="line"/>
			<point x="151" y="0" type="line"/>
			<point x="480" y="700" type="line"/>
			<point x="470" y="700" type="line"/>
			<point x="249" y="230" type="line"/>
			<point x="253" y="230" type="line"/>
			<point x="10" y="700" type="line"/>
			<point x="0" y="700" type="line"/>
			<point x="246" y="224" type="line"/>
		</contour>
		<contour>
			<point x="240" y="768" type="curve" smooth="yes"/>
			<point x="345" y="768"/>
			<point x="398" y="839"/>
			<point x="398" y="908" type="curve"/>
			<point x="388" y="908" type="line"/>
			<point x="388" y="842"/>
			<point x="332" y="778"/>
			<point x="240" y="778" type="curve" smooth="yes"/>
			<point x="148" y="778"/>
			<point x="92" y="842"/>
			<point x="92" y="908" type="curve"/>
			<point x="82" y="908" type="line"/>
			<point x="82" y="839"/>
			<point x="135" y="768"/>
		</contour>
	</outline>
</glyph>
<glyph name="uni0413" format="2">
	<advance width="435"/>
	<unicode hex="0413"/>
	<outline>
		<contour>
			<point x="80" y="0" type="line"/>
			<point x="90" y="0" type="line"/>
			<point x="90" y="690" type="line"/>
			<point x="425" y="690" type="line"/>
			<point x="425" y="700" type="line"/>
			<point x="80" y="700" type="line"/>
		</contour>
	</outline>
</glyph>
<glyph name="uni0416" format="2">
	<advance width="640"/>
	<unicode hex="0416"/>
	<outline>
		<contour>
			<point x="5" y="0" type="line"/>
			<point x="20" y="0" type="line"/>
			<point x="322" y="370" type="line"/>
			<point x="35" y="700" type="line"/>
			<point x="20" y="700" type="line"/>
			<point x="309" y="370" type="line"/>
		</contour>
		<contour>
			<point x="320" y="0" type="line"/>
			<point x="330" y="0" type="line"/>
			<point x="330" y="700" type="line"/>
			<point x="320" y="700" type="line"/>
		</contour>
		<contour>
			<point x="620" y="0" type="line"/>
			<point x="635" y="0" type="line"/>
			<point x="341" y="370" type="line"/>
			<point x="620" y="700" type="line"/>
			<point x="605" y="700" type="line"/>
			<point x="328" y="370" type="line"/>
		</contour>
	</outline>
</glyph>
<glyph name="uni0418" format="2">
	<advance width="725"/>
	<unicode hex="0418"/>
	<outline>
		<contour>
			<point x="90" y="-35" type="line"/>
			<point x="635" y="717" type="line"/>
			<point x="635" y="735" type="line"/>
			<point x="90" y="-17" type="line"/>
		</contour>
		<contour>
			<point x="90" y="-35" type="line"/>
			<point x="100" y="-13" type="line"/>
			<point x="100" y="700" type="line"/>
			<point x="90" y="700" type="line"/>
		</contour>
		<contour>
			<point x="625" y="0" type="line"/>
			<point x="635" y="0" type="line"/>
			<point x="635" y="735" type="line"/>
			<point x="625" y="715" type="line"/>
		</contour>
	</outline>
</glyph>
<glyph name="uni041B" format="2">
	<advance width="613"/>
	<unicode hex="041B"/>
	<outline>
		<contour>
			<point x="10" y="0" type="line"/>
			<point x="74" y="0"/>
			<point x="113" y="111"/>
			<point x="113" y="240" type="curve" smooth="yes"/>
			<point x="113" y="690" type="line"/>
			<point x="523" y="690" type="line"/>
			<point x="523" y="0" type="line"/>
			<point x="533" y="0" type="line"/>
			<point x="533" y="700" type="line"/>
			<point x="103" y="700" type="line"/>
			<point x="103" y="240" type="line" smooth="yes"/>
			<point x="103" y="134"/>
			<point x="70" y="10"/>
			<point x="10" y="10" type="curve"/>
		</contour>
	</outline>
</glyph>
<glyph name="uni041C" format="2">
	<advance width="810"/>
	<unicode hex="041C"/>
	<outline>
		<contour>
			<point x="60" y="0" type="line"/>
			<point x="71" y="0" type="line"/>
			<point x="142" y="675" type="line"/>
			<point x="415" y="105" type="line"/>
			<point x="688" y="675" type="line"/>
			<point x="759" y="0" type="line"/>
			<point x="770" y="0" type="line"/>
			<point x="695" y="715" type="line"/>
			<point x="415" y="131" type="line"/>
			<point x="135" y="715" type="line"/>
		</contour>
	</outline>
</glyph>
<glyph name="uni041F" format="2">
	<advance width="640"/>
	<unicode hex="041F"/>
	<outline>
		<contour>
			<point x="80" y="0" type="line"/>
			<point x="90" y="0" type="line"/>
			<point x="90" y="690" type="line"/>
			<point x="550" y="690" type="line"/>
			<point x="550" y="0" type="line"/>
			<point x="560" y="0" type="line"/>
			<point x="560" y="700" type="line"/>
			<point x="80" y="700" type="line"/>
		</contour>
	</outline>
</glyph>
<glyph name="uni042A" format="2">
	<advance width="616"/>
	<unicode hex="042A"/>
	<outline>
		<contour>
			<point x="195" y="0" type="line"/>
			<point x="338" y="0" type="line" smooth="yes"/>
			<point x="473" y="0"/>
			<point x="576" y="81"/>
			<point x="576" y="210" type="curve" smooth="yes"/>
			<point x="576" y="339"/>
			<point x="473" y="420"/>
			<point x="338" y="420" type="curve" smooth="yes"/>
			<point x="195" y="420" type="line"/>
			<point x="195" y="410" type="line"/>
			<point x="338" y="410" type="line" smooth="yes"/>
			<point x="468" y="410"/>
			<point x="566" y="331"/>
			<point x="566" y="210" type="curve" smooth="yes"/>
			<point x="566" y="89"/>
			<point x="468" y="10"/>
			<point x="338" y="10" type="curve" smooth="yes"/>
			<point x="195" y="10" type="line"/>
		</contour>
		<contour>
			<point x="190" y="0" type="line"/>
			<point x="200" y="0" type="line"/>
			<point x="200" y="700" type="line"/>
			<point x="10" y="700" type="line"/>
			<point x="10" y="690" type="line"/>
			<point x="190" y="690" type="line"/>
		</contour>
	</outline>
</glyph>
<glyph name="uni042E" format="2">
	<advance width="1024"/>
	<unicode hex="042E"/>
	<outline>
		<contour>
			<point x="637" y="-9" type="curve" smooth="yes"/>
			<point x="831" y="-9"/>
			<point x="974" y="143"/>
			<point x="974" y="352" type="curve" smooth="yes"/>
			<point x="974" y="561"/>
			<point x="831" y="710"/>
			<point x="637" y="710" type="curve" smooth="yes"/>
			<point x="443" y="710"/>
			<point x="300" y="561"/>
			<point x="300" y="352" type="curve" smooth="yes"/>
			<point x="300" y="143"/>
			<point x="443" y="-9"/>
		</contour>
		<contour>
			<point x="80" y="0" type="line"/>
			<point x="90" y="0" type="line"/>
			<point x="90" y="700" type="line"/>
			<point x="80" y="700" type="line"/>
		</contour>
		<contour>
			<point x="87" y="375" type="line"/>
			<point x="307" y="375" type="line"/>
			<point x="307" y="385" type="line"/>
			<point x="87" y="385" type="line"/>
		</contour>
		<contour>
			<point x="637" y="3" type="curve" smooth="yes"/>
			<point x="446" y="3"/>
			<point x="311" y="151"/>
			<point x="311" y="352" type="curve" smooth="yes"/>
			<point x="311" y="553"/>
			<point x="446" y="699"/>
			<point x="637" y="699" type="curve" smooth="yes"/>
			<point x="828" y="699"/>
			<point x="963" y="553"/>
			<point x="963" y="352" type="curve" smooth="yes"/>
			<point x="963" y="151"/>
			<point x="828" y="3"/>
		</contour>
	</outline>
</glyph>
<glyph name="uni042F" format="2">
	<advance width="468"/>
	<unicode hex="042F"/>
	<outline>
		<contour>
			<point x="263" y="314" type="curve" smooth="yes"/>
			<point x="376" y="314" type="line"/>
			<point x="376" y="324" type="line"/>
			<point x="263" y="324" type="line" smooth="yes"/>
			<point x="131" y="324"/>
			<point x="38" y="384"/>
			<point x="38" y="507" type="curve" smooth="yes"/>
			<point x="38" y="630"/>
			<point x="132" y="689"/>
			<point x="263" y="689" type="curve" smooth="yes"/>
			<point x="376" y="689" type="line"/>
			<point x="376" y="700" type="line"/>
			<point x="263" y="700" type="line" smooth="yes"/>
			<point x="128" y="700"/>
			<point x="27" y="636"/>
			<point x="27" y="507" type="curve" smooth="yes"/>
			<point x="27" y="378"/>
			<point x="128" y="314"/>
		</contour>
		<contour>
			<point x="35" y="0" type="line"/>
			<point x="49" y="0" type="line"/>
			<point x="269" y="317" type="line"/>
			<point x="257" y="317" type="line"/>
		</contour>
		<contour>
			<point x="367" y="0" type="line"/>
			<point x="378" y="0" type="line"/>
			<point x="378" y="700" type="line"/>
			<point x="367" y="700" type="line"/>
		</contour>
	</outline>
</glyph>
<glyph name="uni0433" format="2">
	<advance width="300"/>
	<unicode hex="0433"/>
	<outline>
		<contour>
			<point x="80" y="0" type="line"/>
			<point x="90" y="0" type="line"/>
			<point x="90" y="450" type="line"/>
			<point x="295" y="450" type="line"/>
			<point x="295" y="460" type="line"/>
			<point x="80" y="460" type="line"/>
		</contour>
	</outline>
</glyph>
<glyph name="uni0434" format="2">
	<advance width="655"/>
	<unicode hex="0434"/>
	<outline>
		<contour>
			<point x="100" y="10" type="line"/>
			<point x="111" y="10" type="line"/>
			<point x="325" y="470" type="line"/>
			<point x="539" y="10" type="line"/>
			<point x="550" y="10" type="line"/>
			<point x="325" y="495" type="line"/>
		</contour>
		<contour>
			<point x="40" y="-90" type="line"/>
			<point x="50" y="-90" type="line"/>
			<point x="50" y="0" type="line"/>
			<point x="600" y="0" type="line"/>
			<point x="600" y="-90" type="line"/>
			<point x="610" y="-90" type="line"/>
			<point x="610" y="10" type="line"/>
			<point x="40" y="10" type="line"/>
		</contour>
	</outline>
</glyph>
<glyph name="uni0436" format="2">
	<advance width="454"/>
	<unicode hex="0436"/>
	<outline>
		<contour>
			<point x="431" y="0" type="line"/>
			<point x="444" y="0" type="line"/>
			<point x="243" y="269" type="line"/>
			<point x="424" y="460" type="line"/>
			<point x="411" y="460" type="line"/>
			<point x="230" y="270" type="line"/>
		</contour>
		<contour>
			<point x="10" y="0" type="line"/>
			<point x="23" y="0" type="line"/>
			<point x="224" y="270" type="line"/>
			<point x="43" y="460" type="line"/>
			<point x="30" y="460" type="line"/>
			<point x="211" y="269" type="line"/>
		</contour>
		<contour>
			<point x="222" y="0" type="line"/>
			<point x="232" y="0" type="line"/>
			<point x="232" y="460" type="line"/>
			<point x="222" y="460" type="line"/>
		</contour>
	</outline>
</glyph>
<glyph name="uni0439" format="2">
	<advance width="475"/>
	<unicode hex="0439"/>
	<outline>
		<contour>
			<point x="80" y="-35" type="line"/>
			<point x="390" y="467" type="line"/>
			<point x="395" y="495" type="line"/>
			<point x="85" y="-7" type="line"/>
		</contour>
		<contour>
			<point x="80" y="-35" type="line"/>
			<point x="90" y="-15" type="line"/>
			<point x="90" y="460" type="line"/>
			<point x="80" y="460" type="line"/>
		</contour>
		<contour>
			<point x="385" y="0" type="line"/>
			<point x="395" y="0" type="line"/>
			<point x="395" y="495" type="line"/>
			<point x="385" y="475" type="line"/>
		</contour>
		<contour>
			<point x="235" y="555" type="curve" smooth="yes"/>
			<point x="340" y="555"/>
			<point x="393" y="626"/>
			<point x="393" y="695" type="curve"/>
			<point x="383" y="695" type="line"/>
			<point x="383" y="629"/>
			<point x="327" y="565"/>
			<point x="235" y="565" type="curve" smooth="yes"/>
			<point x="143" y="565"/>
			<point x="87" y="629"/>
			<point x="87" y="695" type="curve"/>
			<point x="77" y="695" type="line"/>
			<point x="77" y="626"/>
			<point x="130" y="555"/>
		</contour>
	</outline>
</glyph>
<glyph name="uni043A" format="2">
	<advance width="440"/>
	<unicode hex="043A"/>
	<outline>
		<contour>
			<point x="348" y="0" type="line"/>
			<point x="362" y="0" type="line"/>
			<point x="102" y="270" type="line"/>
			<point x="344" y="460" type="line"/>
			<point x="328" y="460" type="line"/>
			<point x="88" y="270" type="line"/>
		</contour>
		<contour>
			<point x="80" y="0" type="line"/>
			<point x="90" y="0" type="line"/>
			<point x="90" y="460" type="line"/>
			<point x="80" y="460" type="line"/>
		</contour>
	</outline>
</glyph>
<glyph name="uni043B" format="2">
	<advance width="488"/>
	<unicode hex="043B"/>
	<outline>
		<contour>
			<point x="10" y="0" type="line"/>
			<point x="54" y="0"/>
			<point x="93" y="51"/>
			<point x="93" y="160" type="curve" smooth="yes"/>
			<point x="93" y="450" type="line"/>
			<point x="398" y="450" type="line"/>
			<point x="398" y="0" type="line"/>
			<point x="408" y="0" type="line"/>
			<point x="408" y="460" type="line"/>
			<point x="83" y="460" type="line"/>
			<point x="83" y="160" type="line" smooth="yes"/>
			<point x="83" y="64"/>
			<point x="50" y="10"/>
			<point x="10" y="10" type="curve"/>
		</contour>
	</outline>
</glyph>
<glyph name="uni043C" format="2">
	<advance width="607"/>
	<unicode hex="043C"/>
	<outline>
		<contour>
			<point x="302" y="-31" type="line"/>
			<point x="480" y="454" type="line"/>
			<point x="482" y="495" type="line"/>
			<point x="302" y="9" type="line"/>
		</contour>
		<contour>
			<point x="5" y="0" type="line"/>
			<point x="19" y="0" type="line"/>
			<point x="127" y="454" type="line"/>
			<point x="125" y="495" type="line"/>
		</contour>
		<contour>
			<point x="302" y="-31" type="line"/>
			<point x="302" y="9" type="line"/>
			<point x="125" y="495" type="line"/>
			<point x="127" y="454" type="line"/>
		</contour>
		<contour>
			<point x="590" y="0" type="line"/>
			<point x="602" y="0" type="line"/>
			<point x="482" y="495" type="line"/>
			<point x="480" y="454" type="line"/>
		</contour>
	</outline>
</glyph>
<glyph name="uni0442" format="2">
	<advance width="280"/>
	<unicode hex="0442"/>
	<outline>
		<contour>
			<point x="135" y="0" type="line"/>
			<point x="145" y="0" type="line"/>
			<point x="145" y="455" type="line"/>
			<point x="135" y="455" type="line"/>
		</contour>
		<contour>
			<point x="5" y="450" type="line"/>
			<point x="275" y="450" type="line"/>
			<point x="275" y="460" type="line"/>
			<point x="5" y="460" type="line"/>
		</contour>
	</outline>
</glyph>
<glyph name="uni0448" format="2">
	<advance width="710"/>
	<unicode hex="0448"/>
	<outline>
		<contour>
			<point x="75" y="0" type="line"/>
			<point x="635" y="0" type="line"/>
			<point x="635" y="460" type="line"/>
			<point x="625" y="460" type="line"/>
			<point x="625" y="10" type="line"/>
			<point x="360" y="10" type="line"/>
			<point x="360" y="460" type="line"/>
			<point x="350" y="460" type="line"/>
			<point x="350" y="10" type="line"/>
			<point x="85" y="10" type="line"/>
			<point x="85" y="460" type="line"/>
			<point x="75" y="460" type="line"/>
		</contour>
	</outline>
</glyph>
<glyph name="uni0453" format="2">
	<advance width="300"/>
	<unicode hex="0453"/>
	<outline>
		<contour>
			<point x="80" y="0" type="line"/>
			<point x="90" y="0" type="line"/>
			<point x="90" y="450" type="line"/>
			<point x="295" y="450" type="line"/>
			<point x="295" y="460" type="line"/>
			<point x="80" y="460" type="line"/>
		</contour>
		<contour>
			<point x="130" y="530" type="line"/>
			<point x="303" y="687" type="line"/>
			<point x="295" y="695" type="line"/>
			<point x="125" y="535" type="line"/>
		</contour>
	</outline>
</glyph>
<glyph name="uni045E" format="2">
	<advance width="440"/>
	<unicode hex="045E"/>
	<outline>
		<contour>
			<point x="104" y="-220" type="line"/>
			<point x="115" y="-220" type="line"/>
			<point x="415" y="460" type="line"/>
			<point x="404" y="460" type="line"/>
			<point x="210" y="20" type="line"/>
			<point x="221" y="20" type="line"/>
			<point x="22" y="460" type="line"/>
			<point x="10" y="460" type="line"/>
			<point x="210" y="20" type="line"/>
		</contour>
		<contour>
			<point x="220" y="530" type="curve" smooth="yes"/>
			<point x="325" y="530"/>
			<point x="378" y="601"/>
			<point x="378" y="670" type="curve"/>
			<point x="368" y="670" type="line"/>
			<point x="368" y="604"/>
			<point x="312" y="540"/>
			<point x="220" y="540" type="curve" smooth="yes"/>
			<point x="128" y="540"/>
			<point x="72" y="604"/>
			<point x="72" y="670" type="curve"/>
			<point x="62" y="670" type="line"/>
			<point x="62" y="601"/>
			<point x="115" y="530"/>
		</contour>
	</outline>
</glyph>
<glyph name="uni2010" format="2">
	<advance width="210"/>
	<unicode hex="2010"/>
	<outline>
		<contour>
			<point x="5" y="265" type="line"/>
			<point x="205" y="265" type="line"/>
			<point x="205" y="275" type="line"/>
			<point x="5" y="275" type="line"/>
		</contour>
	</outline>
</glyph>
<glyph name="figuredash" format="2">
	<advance width="590"/>
	<unicode hex="2012"/>
	<outline>
		<contour>
			<point x="70" y="265" type="line"/>
			<point x="520" y="265" type="line"/>
			<point x="520" y="275" type="line"/>
			<point x="70" y="275" type="line"/>
		</contour>
	</outline>
</glyph>
<glyph name="endash" format="2">
	<advance width="740"/>
	<unicode hex="2013"/>
	<outline>
		<contour>
			<point x="70" y="265" type="line"/>
			<point x="670" y="265" type="line"/>
			<point x="670" y="275" type="line"/>
			<point x="70" y="275" type="line"/>
		</contour>
	</outline>
</glyph>
<glyph name="emdash" format="2">
	<advance width="890"/>
	<unicode hex="2014"/>
	<outline>
		<contour>
			<point x="70" y="265" type="line"/>
			<point x="820" y="265" type="line"/>
			<point x="820" y="275" type="line"/>
			<point x="70" y="275" type="line"/>
		</contour>
	</outline>
</glyph>
<glyph name="quoteleft" format="2">
	<advance width="225"/>
	<unicode hex="2018"/>
	<outline>
		<contour>
			<point x="60" y="470" type="line"/>
			<point x="72" y="470" type="line"/>
			<point x="165" y="700" type="line"/>
			<point x="155" y="700" type="line"/>
		</contour>
	</outline>
</glyph>
<glyph name="quoteright" format="2">
	<advance width="245"/>
	<unicode hex="2019"/>
	<outline>
		<contour>
			<point x="80" y="470" type="line"/>
			<point x="90" y="470" type="line"/>
			<point x="185" y="700" type="line"/>
			<point x="173" y="700" type="line"/>
		</contour>
	</outline>
</glyph>
<glyph name="quotesinglbase" format="2">
	<advance width="245"/>
	<unicode hex="201A"/>
	<outline>
		<contour>
			<point x="60" y="-150" type="line"/>
			<point x="70" y="-150" type="line"/>
			<point x="165" y="80" type="line"/>
			<point x="153" y="80" type="line"/>
		</contour>
	</outline>
</glyph>
<glyph name="quotedblleft" format="2">
	<advance width="385"/>
	<unicode hex="201C"/>
	<outline>
		<contour>
			<point x="220" y="470" type="line"/>
			<point x="232" y="470" type="line"/>
			<point x="325" y="700" type="line"/>
			<point x="315" y="700" type="line"/>
		</contour>
		<contour>
			<point x="80" y="470" type="line"/>
			<point x="92" y="470" type="line"/>
			<point x="185" y="700" type="line"/>
			<point x="175" y="700" type="line"/>
		</contour>
	</outline>
</glyph>
<glyph name="quotedblright" format="2">
	<advance width="385"/>
	<unicode hex="201D"/>
	<outline>
		<contour>
			<point x="200" y="470" type="line"/>
			<point x="210" y="470" type="line"/>
			<point x="305" y="700" type="line"/>
			<point x="293" y="700" type="line"/>
		</contour>
		<contour>
			<point x="60" y="470" type="line"/>
			<point x="70" y="470" type="line"/>
			<point x="165" y="700" type="line"/>
			<point x="153" y="700" type="line"/>
		</contour>
	</outline>
</glyph>
<glyph name="quotedblbase" format="2">
	<advance width="385"/>
	<unicode hex="201E"/>
	<outline>
		<contour>
			<point x="200" y="-150" type="line"/>
			<point x="210" y="-150" type="line"/>
			<point x="305" y="80" type="line"/>
			<point x="293" y="80" type="line"/>
		</contour>
		<contour>
			<point x="60" y="-150" type="line"/>
			<point x="70" y="-150" type="line"/>
			<point x="165" y="80" type="line"/>
			<point x="153" y="80" type="line"/>
		</contour>
	</outline>
</glyph>
<glyph name="dagger" format="2">
	<advance width="500"/>
	<unicode hex="2020"/>
	<outline>
		<contour>
			<point x="245" y="-150" type="line"/>
			<point x="255" y="-150" type="line"/>
			<point x="255" y="700" type="line"/>
			<point x="245" y="700" type="line"/>
		</contour>
		<contour>
			<point x="90" y="530" type="line"/>
			<point x="410" y="530" type="line"/>
			<point x="410" y="540" type="line"/>
			<point x="90" y="540" type="line"/>
		</contour>
	</outline>
</glyph>
<glyph name="bullet" format="2">
	<advance width="300"/>
	<unicode hex="2022"/>
	<outline>
		<contour>
			<point x="130" y="365" type="curve" smooth="yes"/>
			<point x="136" y="365"/>
			<point x="141" y="369"/>
			<point x="141" y="376" type="curve" smooth="yes"/>
			<point x="141" y="383"/>
			<point x="136" y="387"/>
			<point x="130" y="387" type="curve" smooth="yes"/>
			<point x="124" y="387"/>
			<point x="119" y="383"/>
			<point x="119" y="376" type="curve" smooth="yes"/>
			<point x="119" y="369"/>
			<point x="124" y="365"/>
		</contour>
	</outline>
</glyph>
<glyph name="guilsinglleft" format="2">
	<advance width="325"/>
	<unicode hex="2039"/>
	<outline>
		<contour>
			<point x="248" y="20" type="line"/>
			<point x="255" y="27" type="line"/>
			<point x="50" y="255" type="line"/>
			<point x="255" y="483" type="line"/>
			<point x="248" y="490" type="line"/>
			<point x="40" y="255" type="line"/>
		</contour>
	</outline>
</glyph>
<glyph name="guilsinglright" format="2">
	<advance width="350"/>
	<unicode hex="203A"/>
	<outline>
		<contour>
			<point x="102" y="20" type="line"/>
			<point x="310" y="255" type="line"/>
			<point x="102" y="490" type="line"/>
			<point x="95" y="483" type="line"/>
			<point x="300" y="255" type="line"/>
			<point x="95" y="27" type="line"/>
		</contour>
	</outline>
</glyph>
<glyph name="uni203D" format="2">
	<advance width="557"/>
	<unicode hex="203D"/>
	<outline>
		<contour>
			<point x="260" y="337" type="line"/>
			<point x="370" y="337"/>
			<point x="462" y="421"/>
			<point x="462" y="520" type="curve" smooth="yes"/>
			<point x="462" y="629"/>
			<point x="389" y="710"/>
			<point x="264" y="710" type="curve" smooth="yes"/>
			<point x="165" y="710"/>
			<point x="111" y="663"/>
			<point x="65" y="593" type="curve"/>
			<point x="74" y="587" type="line"/>
			<point x="118" y="656"/>
			<point x="172" y="700"/>
			<point x="264" y="700" type="curve" smooth="yes"/>
			<point x="384" y="700"/>
			<point x="452" y="621"/>
			<point x="452" y="520" type="curve" smooth="yes"/>
			<point x="452" y="424"/>
			<point x="362" y="345"/>
			<point x="252" y="345" type="curve"/>
		</contour>
		<contour>
			<point x="255" y="-10" type="curve" smooth="yes"/>
			<point x="261" y="-10"/>
			<point x="266" y="-6"/>
			<point x="266" y="1" type="curve" smooth="yes"/>
			<point x="266" y="8"/>
			<point x="261" y="12"/>
			<point x="255" y="12" type="curve" smooth="yes"/>
			<point x="249" y="12"/>
			<point x="244" y="8"/>
			<point x="244" y="1" type="curve" smooth="yes"/>
			<point x="244" y="-6"/>
			<point x="249" y="-10"/>
		</contour>
		<contour>
			<point x="252" y="170" type="line"/>
			<point x="258" y="170" type="line"/>
			<point x="261" y="510" type="line"/>
			<point x="249" y="510" type="line"/>
		</contour>
	</outline>
</glyph>
<glyph name="fraction" format="2">
	<advance width="705"/>
	<unicode hex="2044"/>
	<outline>
		<contour>
			<point x="60" y="0" type="line"/>
			<point x="72" y="0" type="line"/>
			<point x="645" y="700" type="line"/>
			<point x="633" y="700" type="line"/>
		</contour>
	</outline>
</glyph>
<glyph name="uni2070" format="2">
	<advance width="324"/>
	<unicode hex="2070"/>
	<outline>
		<contour>
			<point x="167" y="274" type="curve" smooth="yes"/>
			<point x="250" y="274"/>
			<point x="299" y="371"/>
			<point x="299" y="490" type="curve" smooth="yes"/>
			<point x="299" y="609"/>
			<point x="250" y="706"/>
			<point x="167" y="706" type="curve" smooth="yes"/>
			<point x="84" y="706"/>
			<point x="35" y="609"/>
			<point x="35" y="490" type="curve" smooth="yes"/>
			<point x="35" y="371"/>
			<point x="84" y="274"/>
		</contour>
		<contour>
			<point x="167" y="280" type="curve" smooth="yes"/>
			<point x="88" y="280"/>
			<point x="42" y="378"/>
			<point x="42" y="490" type="curve" smooth="yes"/>
			<point x="42" y="602"/>
			<point x="88" y="700"/>
			<point x="167" y="700" type="curve" smooth="yes"/>
			<point x="246" y="700"/>
			<point x="292" y="602"/>
			<point x="292" y="490" type="curve" smooth="yes"/>
			<point x="292" y="378"/>
			<point x="246" y="280"/>
		</contour>
	</outline>
</glyph>
<glyph name="uni2076" format="2">
	<advance width="332"/>
	<unicode hex="2076"/>
	<outline>
		<contour>
			<point x="171" y="272" type="curve" smooth="yes"/>
			<point x="252" y="272"/>
			<point x="302" y="330"/>
			<point x="302" y="410" type="curve" smooth="yes"/>
			<point x="302" y="481"/>
			<point x="246" y="540"/>
			<point x="178" y="540" type="curve" smooth="yes"/>
			<point x="133" y="540"/>
			<point x="95" y="522"/>
			<point x="70" y="491" type="curve"/>
			<point x="70" y="491" type="line"/>
			<point x="216" y="698" type="line"/>
			<point x="208" y="698" type="line"/>
			<point x="74" y="505" type="line" smooth="yes"/>
			<point x="58" y="483"/>
			<point x="40" y="444"/>
			<point x="40" y="410" type="curve" smooth="yes"/>
			<point x="40" y="330"/>
			<point x="90" y="272"/>
		</contour>
		<contour>
			<point x="171" y="278" type="curve" smooth="yes"/>
			<point x="96" y="278"/>
			<point x="46" y="334"/>
			<point x="46" y="410" type="curve" smooth="yes"/>
			<point x="46" y="474"/>
			<point x="94" y="534"/>
			<point x="178" y="534" type="curve" smooth="yes"/>
			<point x="241" y="534"/>
			<point x="296" y="480"/>
			<point x="296" y="410" type="curve" smooth="yes"/>
			<point x="296" y="334"/>
			<point x="246" y="278"/>
		</contour>
	</outline>
</glyph>
<glyph name="uni2077" format="2">
	<advance width="352"/>
	<unicode hex="2077"/>
	<outline>
		<contour>
			<point x="88" y="280" type="line"/>
			<point x="95" y="280" type="line"/>
			<point x="317" y="700" type="line"/>
			<point x="35" y="700" type="line"/>
			<point x="35" y="694" type="line"/>
			<point x="307" y="694" type="line"/>
		</contour>
	</outline>
</glyph>
<glyph name="uni2078" format="2">
	<advance width="302"/>
	<unicode hex="2078"/>
	<outline>
		<contour>
			<point x="151" y="274" type="curve" smooth="yes"/>
			<point x="226" y="274"/>
			<point x="267" y="326"/>
			<point x="267" y="391" type="curve" smooth="yes"/>
			<point x="267" y="456"/>
			<point x="211" y="503"/>
			<point x="151" y="503" type="curve" smooth="yes"/>
			<point x="91" y="503"/>
			<point x="35" y="456"/>
			<point x="35" y="391" type="curve" smooth="yes"/>
			<point x="35" y="326"/>
			<point x="76" y="274"/>
		</contour>
		<contour>
			<point x="151" y="280" type="curve" smooth="yes"/>
			<point x="82" y="280"/>
			<point x="41" y="327"/>
			<point x="41" y="391" type="curve" smooth="yes"/>
			<point x="41" y="455"/>
			<point x="97" y="499"/>
			<point x="151" y="499" type="curve" smooth="yes"/>
			<point x="205" y="499"/>
			<point x="261" y="455"/>
			<point x="261" y="391" type="curve" smooth="yes"/>
			<point x="261" y="327"/>
			<point x="220" y="280"/>
		</contour>
		<contour>
			<point x="151" y="501" type="curve" smooth="yes"/>
			<point x="202" y="501"/>
			<point x="255" y="546"/>
			<point x="255" y="605" type="curve" smooth="yes"/>
			<point x="255" y="658"/>
			<point x="211" y="706"/>
			<point x="151" y="706" type="curve" smooth="yes"/>
			<point x="91" y="706"/>
			<point x="47" y="658"/>
			<point x="47" y="605" type="curve" smooth="yes"/>
			<point x="47" y="546"/>
			<point x="100" y="501"/>
		</contour>
		<contour>
			<point x="151" y="505" type="curve" smooth="yes"/>
			<point x="109" y="505"/>
			<point x="53" y="547"/>
			<point x="53" y="605" type="curve" smooth="yes"/>
			<point x="53" y="657"/>
			<point x="94" y="700"/>
			<point x="151" y="700" type="curve" smooth="yes"/>
			<point x="208" y="700"/>
			<point x="249" y="657"/>
			<point x="249" y="605" type="curve" smooth="yes"/>
			<point x="249" y="547"/>
			<point x="193" y="505"/>
		</contour>
	</outline>
</glyph>
<glyph name="uni2079" format="2">
	<advance width="332"/>
	<unicode hex="2079"/>
	<outline>
		<contour>
			<point x="117" y="282" type="line"/>
			<point x="124" y="282" type="line"/>
			<point x="258" y="475" type="line" smooth="yes"/>
			<point x="274" y="497"/>
			<point x="292" y="536"/>
			<point x="292" y="570" type="curve" smooth="yes"/>
			<point x="292" y="650"/>
			<point x="242" y="708"/>
			<point x="161" y="708" type="curve" smooth="yes"/>
			<point x="80" y="708"/>
			<point x="30" y="650"/>
			<point x="30" y="570" type="curve" smooth="yes"/>
			<point x="30" y="499"/>
			<point x="87" y="440"/>
			<point x="155" y="440" type="curve" smooth="yes"/>
			<point x="200" y="440"/>
			<point x="237" y="458"/>
			<point x="262" y="489" type="curve"/>
			<point x="262" y="489" type="line"/>
		</contour>
		<contour>
			<point x="155" y="446" type="curve" smooth="yes"/>
			<point x="92" y="446"/>
			<point x="36" y="500"/>
			<point x="36" y="570" type="curve" smooth="yes"/>
			<point x="36" y="646"/>
			<point x="86" y="702"/>
			<point x="161" y="702" type="curve" smooth="yes"/>
			<point x="236" y="702"/>
			<point x="286" y="646"/>
			<point x="286" y="570" type="curve" smooth="yes"/>
			<point x="286" y="506"/>
			<point x="239" y="446"/>
		</contour>
	</outline>
</glyph>
<glyph name="uni2080" format="2">
	<advance width="334"/>
	<unicode hex="2080"/>
	<outline>
		<contour>
			<point x="167" y="-6" type="curve" smooth="yes"/>
			<point x="250" y="-6"/>
			<point x="299" y="91"/>
			<point x="299" y="210" type="curve" smooth="yes"/>
			<point x="299" y="329"/>
			<point x="250" y="426"/>
			<point x="167" y="426" type="curve" smooth="yes"/>
			<point x="84" y="426"/>
			<point x="35" y="329"/>
			<point x="35" y="210" type="curve" smooth="yes"/>
			<point x="35" y="91"/>
			<point x="84" y="-6"/>
		</contour>
		<contour>
			<point x="167" y="0" type="curve" smooth="yes"/>
			<point x="88" y="0"/>
			<point x="42" y="98"/>
			<point x="42" y="210" type="curve" smooth="yes"/>
			<point x="42" y="322"/>
			<point x="88" y="420"/>
			<point x="167" y="420" type="curve" smooth="yes"/>
			<point x="246" y="420"/>
			<point x="292" y="322"/>
			<point x="292" y="210" type="curve" smooth="yes"/>
			<point x="292" y="98"/>
			<point x="246" y="0"/>
		</contour>
	</outline>
</glyph>
<glyph name="uni2081" format="2">
	<advance width="288"/>
	<unicode hex="2081"/>
	<outline>
		<contour>
			<point x="197" y="1" type="line"/>
			<point x="203" y="1" type="line"/>
			<point x="203" y="424" type="line"/>
			<point x="95" y="400" type="line"/>
			<point x="95" y="393" type="line"/>
			<point x="197" y="416" type="line"/>
		</contour>
	</outline>
</glyph>
<glyph name="uni2083" format="2">
	<advance width="318"/>
	<unicode hex="2083"/>
	<outline>
		<contour>
			<point x="158" y="-6" type="curve" smooth="yes"/>
			<point x="233" y="-6"/>
			<point x="283" y="40"/>
			<point x="283" y="105" type="curve" smooth="yes"/>
			<point x="283" y="182"/>
			<point x="203" y="221"/>
			<point x="140" y="221" type="curve"/>
			<point x="140" y="216" type="line"/>
			<point x="194" y="216"/>
			<point x="277" y="180"/>
			<point x="277" y="105" type="curve" smooth="yes"/>
			<point x="277" y="44"/>
			<point x="230" y="0"/>
			<point x="158" y="0" type="curve" smooth="yes"/>
			<point x="80" y="0"/>
			<point x="36" y="47"/>
			<point x="36" y="111" type="curve"/>
			<point x="30" y="111" type="line"/>
			<point x="30" y="46"/>
			<point x="77" y="-6"/>
		</contour>
		<contour>
			<point x="140" y="217" type="line"/>
			<point x="203" y="217"/>
			<point x="271" y="255"/>
			<point x="271" y="320" type="curve" smooth="yes"/>
			<point x="271" y="373"/>
			<point x="233" y="426"/>
			<point x="161" y="426" type="curve" smooth="yes"/>
			<point x="92" y="426"/>
			<point x="48" y="381"/>
			<point x="48" y="316" type="curve"/>
			<point x="54" y="316" type="line"/>
			<point x="54" y="377"/>
			<point x="96" y="420"/>
			<point x="161" y="420" type="curve" smooth="yes"/>
			<point x="228" y="420"/>
			<point x="265" y="370"/>
			<point x="265" y="320" type="curve" smooth="yes"/>
			<point x="265" y="258"/>
			<point x="194" y="222"/>
			<point x="140" y="222" type="curve"/>
		</contour>
	</outline>
</glyph>
<glyph name="uni2085" format="2">
	<advance width="341"/>
	<unicode hex="2085"/>
	<outline>
		<contour>
			<point x="160" y="-8" type="curve" smooth="yes"/>
			<point x="235" y="-8"/>
			<point x="295" y="41"/>
			<point x="295" y="136" type="curve" smooth="yes"/>
			<point x="295" y="213"/>
			<point x="242" y="266"/>
			<point x="176" y="266" type="curve" smooth="yes"/>
			<point x="123" y="266"/>
			<point x="81" y="240"/>
			<point x="63" y="213" type="curve"/>
			<point x="53" y="194" type="line"/>
			<point x="84" y="236"/>
			<point x="124" y="260"/>
			<point x="176" y="260" type="curve" smooth="yes"/>
			<point x="239" y="260"/>
			<point x="289" y="209"/>
			<point x="289" y="136" type="curve" smooth="yes"/>
			<point x="289" y="45"/>
			<point x="232" y="-2"/>
			<point x="160" y="-2" type="curve" smooth="yes"/>
			<point x="97" y="-2"/>
			<point x="62" y="30"/>
			<point x="40" y="83" type="curve"/>
			<point x="35" y="80" type="line"/>
			<point x="57" y="26"/>
			<point x="95" y="-8"/>
		</contour>
		<contour>
			<point x="53" y="194" type="line"/>
			<point x="63" y="213" type="line"/>
			<point x="112" y="412" type="line"/>
			<point x="306" y="412" type="line"/>
			<point x="306" y="418" type="line"/>
			<point x="108" y="418" type="line"/>
		</contour>
	</outline>
</glyph>
<glyph name="uni2088" format="2">
	<advance width="302"/>
	<unicode hex="2088"/>
	<outline>
		<contour>
			<point x="151" y="-6" type="curve" smooth="yes"/>
			<point x="226" y="-6"/>
			<point x="267" y="46"/>
			<point x="267" y="111" type="curve" smooth="yes"/>
			<point x="267" y="176"/>
			<point x="211" y="223"/>
			<point x="151" y="223" type="curve" smooth="yes"/>
			<point x="91" y="223"/>
			<point x="35" y="176"/>
			<point x="35" y="111" type="curve" smooth="yes"/>
			<point x="35" y="46"/>
			<point x="76" y="-6"/>
		</contour>
		<contour>
			<point x="151" y="0" type="curve" smooth="yes"/>
			<point x="82" y="0"/>
			<point x="41" y="47"/>
			<point x="41" y="111" type="curve" smooth="yes"/>
			<point x="41" y="175"/>
			<point x="97" y="219"/>
			<point x="151" y="219" type="curve" smooth="yes"/>
			<point x="205" y="219"/>
			<point x="261" y="175"/>
			<point x="261" y="111" type="curve" smooth="yes"/>
			<point x="261" y="47"/>
			<point x="220" y="0"/>
		</contour>
		<contour>
			<point x="151" y="221" type="curve" smooth="yes"/>
			<point x="202" y="221"/>
			<point x="255" y="266"/>
			<point x="255" y="325" type="curve" smooth="yes"/>
			<point x="255" y="378"/>
			<point x="211" y="426"/>
			<point x="151" y="426" type="curve" smooth="yes"/>
			<point x="91" y="426"/>
			<point x="47" y="378"/>
			<point x="47" y="325" type="curve" smooth="yes"/>
			<point x="47" y="266"/>
			<point x="100" y="221"/>
		</contour>
		<contour>
			<point x="151" y="225" type="curve" smooth="yes"/>
			<point x="109" y="225"/>
			<point x="53" y="267"/>
			<point x="53" y="325" type="curve" smooth="yes"/>
			<point x="53" y="377"/>
			<point x="94" y="420"/>
			<point x="151" y="420" type="curve" smooth="yes"/>
			<point x="208" y="420"/>
			<point x="249" y="377"/>
			<point x="249" y="325" type="curve" smooth="yes"/>
			<point x="249" y="267"/>
			<point x="193" y="225"/>
		</contour>
	</outline>
</glyph>
<glyph name="uni2155" format="2">
	<advance width="744"/>
	<unicode hex="2155"/>
	<outline>
		<contour>
			<point x="48" y="0" type="line"/>
			<point x="60" y="0" type="line"/>
			<point x="633" y="700" type="line"/>
			<point x="621" y="700" type="line"/>
		</contour>
		<contour>
			<point x="123" y="274" type="line"/>
			<point x="129" y="274" type="line"/>
			<point x="129" y="697" type="line"/>
			<point x="21" y="673" type="line"/>
			<point x="21" y="666" type="line"/>
			<point x="123" y="689" type="line"/>
		</contour>
		<contour>
			<point x="548" y="-8" type="curve" smooth="yes"/>
			<point x="623" y="-8"/>
			<point x="683" y="41"/>
			<point x="683" y="136" type="curve" smooth="yes"/>
			<point x="683" y="213"/>
			<point x="630" y="266"/>
			<point x="564" y="266" type="curve" smooth="yes"/>
			<point x="511" y="266"/>
			<point x="469" y="240"/>
			<point x="451" y="213" type="curve"/>
			<point x="441" y="194" type="line"/>
			<point x="472" y="236"/>
			<point x="512" y="260"/>
			<point x="564" y="260" type="curve" smooth="yes"/>
			<point x="627" y="260"/>
			<point x="677" y="209"/>
			<point x="677" y="136" type="curve" smooth="yes"/>
			<point x="677" y="45"/>
			<point x="620" y="-2"/>
			<point x="548" y="-2" type="curve" smooth="yes"/>
			<point x="485" y="-2"/>
			<point x="450" y="30"/>
			<point x="428" y="83" type="curve"/>
			<point x="423" y="80" type="line"/>
			<point x="445" y="26"/>
			<point x="483" y="-8"/>
		</contour>
		<contour>
			<point x="441" y="194" type="line"/>
			<point x="451" y="213" type="line"/>
			<point x="500" y="412" type="line"/>
			<point x="694" y="412" type="line"/>
			<point x="694" y="418" type="line"/>
			<point x="496" y="418" type="line"/>
		</contour>
	</outline>
</glyph>
<glyph name="uni2156" format="2">
	<advance width="871"/>
	<unicode hex="2156"/>
	<outline>
		<contour>
			<point x="175" y="0" type="line"/>
			<point x="187" y="0" type="line"/>
			<point x="760" y="700" type="line"/>
			<point x="748" y="700" type="line"/>
		</contour>
		<contour>
			<point x="33" y="282" type="line"/>
			<point x="305" y="282" type="line"/>
			<point x="305" y="288" type="line"/>
			<point x="48" y="288" type="line"/>
			<point x="230" y="479" type="line" smooth="yes"/>
			<point x="260" y="510"/>
			<point x="288" y="545"/>
			<point x="288" y="594" type="curve" smooth="yes"/>
			<point x="288" y="644"/>
			<point x="255" y="709"/>
			<point x="175" y="709" type="curve" smooth="yes"/>
			<point x="100" y="709"/>
			<point x="51" y="647"/>
			<point x="51" y="558" type="curve"/>
			<point x="57" y="558" type="line"/>
			<point x="57" y="643"/>
			<point x="103" y="703"/>
			<point x="175" y="703" type="curve" smooth="yes"/>
			<point x="253" y="703"/>
			<point x="282" y="641"/>
			<point x="282" y="594" type="curve" smooth="yes"/>
			<point x="282" y="544"/>
			<point x="254" y="514"/>
			<point x="225" y="483" type="curve" smooth="yes"/>
		</contour>
		<contour>
			<point x="675" y="-8" type="curve" smooth="yes"/>
			<point x="750" y="-8"/>
			<point x="810" y="41"/>
			<point x="810" y="136" type="curve" smooth="yes"/>
			<point x="810" y="213"/>
			<point x="757" y="266"/>
			<point x="691" y="266" type="curve" smooth="yes"/>
			<point x="638" y="266"/>
			<point x="596" y="240"/>
			<point x="578" y="213" type="curve"/>
			<point x="568" y="194" type="line"/>
			<point x="599" y="236"/>
			<point x="639" y="260"/>
			<point x="691" y="260" type="curve" smooth="yes"/>
			<point x="754" y="260"/>
			<point x="804" y="209"/>
			<point x="804" y="136" type="curve" smooth="yes"/>
			<point x="804" y="45"/>
			<point x="747" y="-2"/>
			<point x="675" y="-2" type="curve" smooth="yes"/>
			<point x="612" y="-2"/>
			<point x="577" y="30"/>
			<point x="555" y="83" type="curve"/>
			<point x="550" y="80" type="line"/>
			<point x="572" y="26"/>
			<point x="610" y="-8"/>
		</contour>
		<contour>
			<point x="568" y="194" type="line"/>
			<point x="578" y="213" type="line"/>
			<point x="627" y="412" type="line"/>
			<point x="821" y="412" type="line"/>
			<point x="821" y="418" type="line"/>
			<point x="623" y="418" type="line"/>
		</contour>
	</outline>
</glyph>
<glyph name="uni2157" format="2">
	<advance width="831"/>
	<unicode hex="2157"/>
	<outline>
		<contour>
			<point x="135" y="0" type="line"/>
			<point x="147" y="0" type="line"/>
			<point x="720" y="700" type="line"/>
			<point x="708" y="700" type="line"/>
		</contour>
		<contour>
			<point x="163" y="274" type="curve" smooth="yes"/>
			<point x="238" y="274"/>
			<point x="288" y="320"/>
			<point x="288" y="385" type="curve" smooth="yes"/>
			<point x="288" y="462"/>
			<point x="208" y="501"/>
			<point x="145" y="501" type="curve"/>
			<point x="145" y="496" type="line"/>
			<point x="199" y="496"/>
			<point x="282" y="460"/>
			<point x="282" y="385" type="curve" smooth="yes"/>
			<point x="282" y="324"/>
			<point x="235" y="280"/>
			<point x="163" y="280" type="curve" smooth="yes"/>
			<point x="85" y="280"/>
			<point x="41" y="327"/>
			<point x="41" y="391" type="curve"/>
			<point x="35" y="391" type="line"/>
			<point x="35" y="326"/>
			<point x="82" y="274"/>
		</contour>
		<contour>
			<point x="145" y="497" type="line"/>
			<point x="208" y="497"/>
			<point x="276" y="535"/>
			<point x="276" y="600" type="curve" smooth="yes"/>
			<point x="276" y="653"/>
			<point x="238" y="706"/>
			<point x="166" y="706" type="curve" smooth="yes"/>
			<point x="97" y="706"/>
			<point x="53" y="661"/>
			<point x="53" y="596" type="curve"/>
			<point x="59" y="596" type="line"/>
			<point x="59" y="657"/>
			<point x="101" y="700"/>
			<point x="166" y="700" type="curve" smooth="yes"/>
			<point x="233" y="700"/>
			<point x="270" y="650"/>
			<point x="270" y="600" type="curve" smooth="yes"/>
			<point x="270" y="538"/>
			<point x="199" y="502"/>
			<point x="145" y="502" type="curve"/>
		</contour>
		<contour>
			<point x="635" y="-8" type="curve" smooth="yes"/>
			<point x="710" y="-8"/>
			<point x="770" y="41"/>
			<point x="770" y="136" type="curve" smooth="yes"/>
			<point x="770" y="213"/>
			<point x="717" y="266"/>
			<point x="651" y="266" type="curve" smooth="yes"/>
			<point x="598" y="266"/>
			<point x="556" y="240"/>
			<point x="538" y="213" type="curve"/>
			<point x="528" y="194" type="line"/>
			<point x="559" y="236"/>
			<point x="599" y="260"/>
			<point x="651" y="260" type="curve" smooth="yes"/>
			<point x="714" y="260"/>
			<point x="764" y="209"/>
			<point x="764" y="136" type="curve" smooth="yes"/>
			<point x="764" y="45"/>
			<point x="707" y="-2"/>
			<point x="635" y="-2" type="curve" smooth="yes"/>
			<point x="572" y="-2"/>
			<point x="537" y="30"/>
			<point x="515" y="83" type="curve"/>
			<point x="510" y="80" type="line"/>
			<point x="532" y="26"/>
			<point x="570" y="-8"/>
		</contour>
		<contour>
			<point x="528" y="194" type="line"/>
			<point x="538" y="213" type="line"/>
			<point x="587" y="412" type="line"/>
			<point x="781" y="412" type="line"/>
			<point x="781" y="418" type="line"/>
			<point x="583" y="418" type="line"/>
		</contour>
	</outline>
</glyph>
<glyph name="uni2158" format="2">
	<advance width="866"/>
	<unicode hex="2158"/>
	<outline>
		<contour>
			<point x="170" y="0" type="line"/>
			<point x="182" y="0" type="line"/>
			<point x="755" y="700" type="line"/>
			<point x="743" y="700" type="line"/>
		</contour>
		<contour>
			<point x="35" y="364" type="line"/>
			<point x="331" y="364" type="line"/>
			<point x="331" y="370" type="line"/>
			<point x="263" y="370" type="line" smooth="yes"/>
			<point x="261" y="370" type="line" smooth="yes"/>
			<point x="41" y="370" type="line"/>
		</contour>
		<contour>
			<point x="259" y="280" type="line"/>
			<point x="266" y="280" type="line"/>
			<point x="266" y="700" type="line"/>
			<point x="265" y="700" type="line"/>
			<point x="35" y="364" type="line"/>
			<point x="42" y="364" type="line"/>
			<point x="259" y="680" type="line"/>
			<point x="259" y="368" type="line" smooth="yes"/>
			<point x="259" y="365" type="line" smooth="yes"/>
		</contour>
		<contour>
			<point x="670" y="-8" type="curve" smooth="yes"/>
			<point x="745" y="-8"/>
			<point x="805" y="41"/>
			<point x="805" y="136" type="curve" smooth="yes"/>
			<point x="805" y="213"/>
			<point x="752" y="266"/>
			<point x="686" y="266" type="curve" smooth="yes"/>
			<point x="633" y="266"/>
			<point x="591" y="240"/>
			<point x="573" y="213" type="curve"/>
			<point x="563" y="194" type="line"/>
			<point x="594" y="236"/>
			<point x="634" y="260"/>
			<point x="686" y="260" type="curve" smooth="yes"/>
			<point x="749" y="260"/>
			<point x="799" y="209"/>
			<point x="799" y="136" type="curve" smooth="yes"/>
			<point x="799" y="45"/>
			<point x="742" y="-2"/>
			<point x="670" y="-2" type="curve" smooth="yes"/>
			<point x="607" y="-2"/>
			<point x="572" y="30"/>
			<point x="550" y="83" type="curve"/>
			<point x="545" y="80" type="line"/>
			<point x="567" y="26"/>
			<point x="605" y="-8"/>
		</contour>
		<contour>
			<point x="563" y="194" type="line"/>
			<point x="573" y="213" type="line"/>
			<point x="622" y="412" type="line"/>
			<point x="816" y="412" type="line"/>
			<point x="816" y="418" type="line"/>
			<point x="618" y="418" type="line"/>
		</contour>
	</outline>
</glyph>
<glyph name="uni2159" format="2">
	<advance width="734"/>
	<unicode hex="2159"/>
	<outline>
		<contour>
			<point x="48" y="0" type="line"/>
			<point x="60" y="0" type="line"/>
			<point x="633" y="700" type="line"/>
			<point x="621" y="700" type="line"/>
		</contour>
		<contour>
			<point x="123" y="274" type="line"/>
			<point x="129" y="274" type="line"/>
			<point x="129" y="697" type="line"/>
			<point x="21" y="673" type="line"/>
			<point x="21" y="666" type="line"/>
			<point x="123" y="689" type="line"/>
		</contour>
		<contour>
			<point x="559" y="-2" type="curve" smooth="yes"/>
			<point x="484" y="-2"/>
			<point x="434" y="54"/>
			<point x="434" y="130" type="curve" smooth="yes"/>
			<point x="434" y="194"/>
			<point x="482" y="254"/>
			<point x="566" y="254" type="curve" smooth="yes"/>
			<point x="629" y="254"/>
			<point x="684" y="200"/>
			<point x="684" y="130" type="curve" smooth="yes"/>
			<point x="684" y="54"/>
			<point x="634" y="-2"/>
		</contour>
		<contour>
			<point x="559" y="-8" type="curve" smooth="yes"/>
			<point x="640" y="-8"/>
			<point x="690" y="50"/>
			<point x="690" y="130" type="curve" smooth="yes"/>
			<point x="690" y="201"/>
			<point x="634" y="260"/>
			<point x="566" y="260" type="curve" smooth="yes"/>
			<point x="521" y="260"/>
			<point x="483" y="242"/>
			<point x="458" y="211" type="curve"/>
			<point x="458" y="211" type="line"/>
			<point x="604" y="418" type="line"/>
			<point x="596" y="418" type="line"/>
			<point x="462" y="225" type="line" smooth="yes"/>
			<point x="446" y="203"/>
			<point x="428" y="164"/>
			<point x="428" y="130" type="curve" smooth="yes"/>
			<point x="428" y="50"/>
			<point x="478" y="-8"/>
		</contour>
	</outline>
</glyph>
<glyph name="seveneighths" format="2">
	<advance width="772"/>
	<unicode hex="215E"/>
	<outline>
		<contour>
			<point x="60" y="0" type="line"/>
			<point x="72" y="0" type="line"/>
			<point x="645" y="700" type="line"/>
			<point x="633" y="700" type="line"/>
		</contour>
		<contour>
			<point x="88" y="280" type="line"/>
			<point x="95" y="280" type="line"/>
			<point x="317" y="700" type="line"/>
			<point x="35" y="700" type="line"/>
			<point x="35" y="694" type="line"/>
			<point x="307" y="694" type="line"/>
		</contour>
		<contour>
			<point x="601" y="-6" type="curve" smooth="yes"/>
			<point x="676" y="-6"/>
			<point x="717" y="46"/>
			<point x="717" y="111" type="curve" smooth="yes"/>
			<point x="717" y="176"/>
			<point x="661" y="223"/>
			<point x="601" y="223" type="curve" smooth="yes"/>
			<point x="541" y="223"/>
			<point x="485" y="176"/>
			<point x="485" y="111" type="curve" smooth="yes"/>
			<point x="485" y="46"/>
			<point x="526" y="-6"/>
		</contour>
		<contour>
			<point x="601" y="0" type="curve" smooth="yes"/>
			<point x="532" y="0"/>
			<point x="491" y="47"/>
			<point x="491" y="111" type="curve" smooth="yes"/>
			<point x="491" y="175"/>
			<point x="547" y="219"/>
			<point x="601" y="219" type="curve" smooth="yes"/>
			<point x="655" y="219"/>
			<point x="711" y="175"/>
			<point x="711" y="111" type="curve" smooth="yes"/>
			<point x="711" y="47"/>
			<point x="670" y="0"/>
		</contour>
		<contour>
			<point x="601" y="221" type="curve" smooth="yes"/>
			<point x="652" y="221"/>
			<point x="705" y="266"/>
			<point x="705" y="325" type="curve" smooth="yes"/>
			<point x="705" y="378"/>
			<point x="661" y="426"/>
			<point x="601" y="426" type="curve" smooth="yes"/>
			<point x="541" y="426"/>
			<point x="497" y="378"/>
			<point x="497" y="325" type="curve" smooth="yes"/>
			<point x="497" y="266"/>
			<point x="550" y="221"/>
		</contour>
		<contour>
			<point x="601" y="225" type="curve" smooth="yes"/>
			<point x="559" y="225"/>
			<point x="503" y="267"/>
			<point x="503" y="325" type="curve" smooth="yes"/>
			<point x="503" y="377"/>
			<point x="544" y="420"/>
			<point x="601" y="420" type="curve" smooth="yes"/>
			<point x="658" y="420"/>
			<point x="699" y="377"/>
			<point x="699" y="325" type="curve" smooth="yes"/>
			<point x="699" y="267"/>
			<point x="643" y="225"/>
		</contour>
	</outline>
</glyph>
<glyph name="minus" format="2">
	<advance width="590"/>
	<unicode hex="2212"/>
	<outline>
		<contour>
			<point x="70" y="265" type="line"/>
			<point x="520" y="265" type="line"/>
			<point x="520" y="275" type="line"/>
			<point x="70" y="275" type="line"/>
		</contour>
	</outline>
</glyph>
<glyph name="uni2215" format="2">
	<advance width="475"/>
	<unicode hex="2215"/>
	<outline>
		<contour>
			<point x="15" y="-150" type="line"/>
			<point x="27" y="-150" type="line"/>
			<point x="460" y="700" type="line"/>
			<point x="448" y="700" type="line"/>
		</contour>
	</outline>
</glyph>
<glyph name="uni2219" format="2">
	<advance width="260"/>
	<unicode hex="2219"/>
	<outline>
		<contour>
			<point x="130" y="438" type="curve" smooth="yes"/>
			<point x="136" y="438"/>
			<point x="141" y="442"/>
			<point x="141" y="449" type="curve" smooth="yes"/>
			<point x="141" y="456"/>
			<point x="136" y="460"/>
			<point x="130" y="460" type="curve" smooth="yes"/>
			<point x="124" y="460"/>
			<point x="119" y="456"/>
			<point x="119" y="449" type="curve" smooth="yes"/>
			<point x="119" y="442"/>
			<point x="124" y="438"/>
		</contour>
	</outline>
</glyph>
<glyph name="uniFF14" format="2">
	<advance width="550"/>
	<unicode hex="FF14"/>
	<outline>
		<contour>
			<point x="397" y="0" type="line"/>
			<point x="408" y="0" type="line"/>
			<point x="408" y="700" type="line"/>
			<point x="406" y="700" type="line"/>
			<point x="24" y="140" type="line"/>
			<point x="36" y="140" type="line"/>
			<point x="397" y="666" type="line"/>
			<point x="397" y="147" type="line" smooth="yes"/>
			<point x="397" y="142" type="line" smooth="yes"/>
		</contour>
		<contour>
			<point x="24" y="140" type="line"/>
			<point x="516" y="140" type="line"/>
			<point x="516" y="150" type="line"/>
			<point x="404" y="150" type="line" smooth="yes"/>
			<point x="400" y="150" type="line" smooth="yes"/>
			<point x="34" y="150" type="line"/>
		</contour>
	</outline>
</glyph>
<glyph name="uniFF16" format="2">
	<advance width="550"/>
	<unicode hex="FF16"/>
	<outline>
		<contour>
			<point x="275" y="-10" type="curve" smooth="yes"/>
			<point x="410" y="-10"/>
			<point x="493" y="86"/>
			<point x="493" y="220" type="curve" smooth="yes"/>
			<point x="493" y="339"/>
			<point x="400" y="437"/>
			<point x="286" y="437" type="curve" smooth="yes"/>
			<point x="211" y="437"/>
			<point x="149" y="407"/>
			<point x="107" y="355" type="curve"/>
			<point x="107" y="355" type="line"/>
			<point x="349" y="700" type="line"/>
			<point x="337" y="700" type="line"/>
			<point x="113" y="379" type="line" smooth="yes"/>
			<point x="86" y="342"/>
			<point x="57" y="277"/>
			<point x="57" y="220" type="curve" smooth="yes"/>
			<point x="57" y="86"/>
			<point x="140" y="-10"/>
		</contour>
		<contour>
			<point x="275" y="0" type="curve" smooth="yes"/>
			<point x="150" y="0"/>
			<point x="67" y="94"/>
			<point x="67" y="220" type="curve" smooth="yes"/>
			<point x="67" y="326"/>
			<point x="146" y="427"/>
			<point x="286" y="427" type="curve" smooth="yes"/>
			<point x="391" y="427"/>
			<point x="483" y="336"/>
			<point x="483" y="220" type="curve" smooth="yes"/>
			<point x="483" y="94"/>
			<point x="400" y="0"/>
		</contour>
	</outline>
</glyph>
<glyph name="uniFF19" format="2">
	<advance width="550"/>
	<unicode hex="FF19"/>
	<outline>
		<contour>
			<point x="201" y="0" type="line"/>
			<point x="213" y="0" type="line"/>
			<point x="437" y="321" type="line" smooth="yes"/>
			<point x="464" y="358"/>
			<point x="493" y="423"/>
			<point x="493" y="480" type="curve" smooth="yes"/>
			<point x="493" y="614"/>
			<point x="410" y="710"/>
			<point x="275" y="710" type="curve" smooth="yes"/>
			<point x="140" y="710"/>
			<point x="57" y="614"/>
			<point x="57" y="480" type="curve" smooth="yes"/>
			<point x="57" y="361"/>
			<point x="150" y="263"/>
			<point x="264" y="263" type="curve" smooth="yes"/>
			<point x="339" y="263"/>
			<point x="401" y="293"/>
			<point x="443" y="345" type="curve"/>
			<point x="443" y="345" type="line"/>
		</contour>
		<contour>
			<point x="264" y="273" type="curve" smooth="yes"/>
			<point x="159" y="273"/>
			<point x="67" y="364"/>
			<point x="67" y="480" type="curve" smooth="yes"/>
			<point x="67" y="606"/>
			<point x="150" y="700"/>
			<point x="275" y="700" type="curve" smooth="yes"/>
			<point x="400" y="700"/>
			<point x="483" y="606"/>
			<point x="483" y="480" type="curve" smooth="yes"/>
			<point x="483" y="374"/>
			<point x="404" y="273"/>
		</contour>
	</outline>
</glyph>
<glyph name="adieresis.alt" format="2">
	<advance width="541"/>
	<outline>
		<contour>
			<point x="258" y="-10" type="curve" smooth="yes"/>
			<point x="381" y="-10"/>
			<point x="456" y="111"/>
			<point x="456" y="230" type="curve" smooth="yes"/>
			<point x="456" y="349"/>
			<point x="381" y="470"/>
			<point x="258" y="470" type="curve" smooth="yes"/>
			<point x="138" y="470"/>
			<point x="45" y="377"/>
			<point x="45" y="230" type="curve" smooth="yes"/>
			<point x="45" y="83"/>
			<point x="138" y="-10"/>
		</contour>
		<contour>
			<point x="261" y="0" type="curve" smooth="yes"/>
			<point x="145" y="0"/>
			<point x="55" y="89"/>
			<point x="55" y="230" type="curve" smooth="yes"/>
			<point x="55" y="371"/>
			<point x="145" y="460"/>
			<point x="261" y="460" type="curve" smooth="yes"/>
			<point x="370" y="460"/>
			<point x="451" y="346"/>
			<point x="451" y="230" type="curve" smooth="yes"/>
			<point x="451" y="114"/>
			<point x="370" y="0"/>
		</contour>
		<contour>
			<point x="451" y="0" type="line"/>
			<point x="461" y="0" type="line"/>
			<point x="461" y="460" type="line"/>
			<point x="451" y="460" type="line"/>
		</contour>
		<contour>
			<point x="168" y="580" type="curve" smooth="yes"/>
			<point x="174" y="580"/>
			<point x="179" y="584"/>
			<point x="179" y="591" type="curve" smooth="yes"/>
			<point x="179" y="598"/>
			<point x="174" y="602"/>
			<point x="168" y="602" type="curve" smooth="yes"/>
			<point x="162" y="602"/>
			<point x="157" y="598"/>
			<point x="157" y="591" type="curve" smooth="yes"/>
			<point x="157" y="584"/>
			<point x="162" y="580"/>
		</contour>
		<contour>
			<point x="368" y="580" type="curve" smooth="yes"/>
			<point x="374" y="580"/>
			<point x="379" y="584"/>
			<point x="379" y="591" type="curve" smooth="yes"/>
			<point x="379" y="598"/>
			<point x="374" y="602"/>
			<point x="368" y="602" type="curve" smooth="yes"/>
			<point x="362" y="602"/>
			<point x="357" y="598"/>
			<point x="357" y="591" type="curve" smooth="yes"/>
			<point x="357" y="584"/>
			<point x="362" y="580"/>
		</contour>
	</outline>
</glyph>
<glyph name="aogonek.alt" format="2">
	<advance width="541"/>
	<outline>
		<contour>
			<point x="258" y="-10" type="curve" smooth="yes"/>
			<point x="381" y="-10"/>
			<point x="456" y="111"/>
			<point x="456" y="230" type="curve" smooth="yes"/>
			<point x="456" y="349"/>
			<point x="381" y="470"/>
			<point x="258" y="470" type="curve" smooth="yes"/>
			<point x="138" y="470"/>
			<point x="45" y="377"/>
			<point x="45" y="230" type="curve" smooth="yes"/>
			<point x="45" y="83"/>
			<point x="138" y="-10"/>
		</contour>
		<contour>
			<point x="404" y="-220" type="curve" smooth="yes"/>
			<point x="447" y="-220"/>
			<point x="487" y="-200"/>
			<point x="502" y="-180" type="curve"/>
			<point x="495" y="-173" type="line"/>
			<point x="480" y="-191"/>
			<point x="444" y="-210"/>
			<point x="404" y="-210" type="curve" smooth="yes"/>
			<point x="354" y="-210"/>
			<point x="311" y="-186"/>
			<point x="311" y="-140" type="curve" smooth="yes"/>
			<point x="311" y="-83"/>
			<point x="393" y="-32"/>
			<point x="461" y="0" type="curve"/>
			<point x="454" y="10" type="line"/>
			<point x="384" y="-26"/>
			<point x="301" y="-71"/>
			<point x="301" y="-140" type="curve" smooth="yes"/>
			<point x="301" y="-189"/>
			<point x="340" y="-220"/>
		</contour>
		<contour>
			<point x="261" y="0" type="curve" smooth="yes"/>
			<point x="145" y="0"/>
			<point x="55" y="89"/>
			<point x="55" y="230" type="curve" smooth="yes"/>
			<point x="55" y="371"/>
			<point x="145" y="460"/>
			<point x="261" y="460" type="curve" smooth="yes"/>
			<point x="370" y="460"/>
			<point x="451" y="346"/>
			<point x="451" y="230" type="curve" smooth="yes"/>
			<point x="451" y="114"/>
			<point x="370" y="0"/>
		</contour>
		<contour>
			<point x="451" y="0" type="line"/>
			<point x="461" y="0" type="line"/>
			<point x="461" y="460" type="line"/>
			<point x="451" y="460" type="line"/>
		</contour>
	</outline>
</glyph>
